G04 #@! TF.GenerationSoftware,KiCad,Pcbnew,(5.0.0)*
G04 #@! TF.CreationDate,2019-02-10T16:52:56+01:00*
G04 #@! TF.ProjectId,MrReflow,4D725265666C6F772E6B696361645F70,rev?*
G04 #@! TF.SameCoordinates,Original*
G04 #@! TF.FileFunction,Legend,Bot*
G04 #@! TF.FilePolarity,Positive*
%FSLAX46Y46*%
G04 Gerber Fmt 4.6, Leading zero omitted, Abs format (unit mm)*
G04 Created by KiCad (PCBNEW (5.0.0)) date 02/10/19 16:52:56*
%MOMM*%
%LPD*%
G01*
G04 APERTURE LIST*
%ADD10C,0.120000*%
%ADD11C,0.150000*%
G04 APERTURE END LIST*
D10*
G04 #@! TO.C,R6*
X167570000Y-90610000D02*
X167570000Y-86590000D01*
X167570000Y-86590000D02*
X175290000Y-86590000D01*
X175290000Y-86590000D02*
X175290000Y-90610000D01*
X175290000Y-90610000D02*
X167570000Y-90610000D01*
X167570000Y-88900000D02*
X168070000Y-88900000D01*
X168070000Y-88900000D02*
X168070000Y-90110000D01*
X168070000Y-90110000D02*
X174790000Y-90110000D01*
X174790000Y-90110000D02*
X174790000Y-88900000D01*
X174790000Y-88900000D02*
X175290000Y-88900000D01*
X167570000Y-88090000D02*
X168570000Y-88090000D01*
X168570000Y-88090000D02*
X168570000Y-86590000D01*
X175290000Y-88090000D02*
X174290000Y-88090000D01*
X174290000Y-88090000D02*
X174290000Y-86590000D01*
X167270000Y-88790000D02*
X167270000Y-86290000D01*
X167270000Y-86290000D02*
X169770000Y-86290000D01*
D11*
G04 #@! TO.C,U2*
X157480000Y-129540000D02*
X157480000Y-115570000D01*
X157480000Y-115570000D02*
X170180000Y-115570000D01*
X170180000Y-115570000D02*
X170180000Y-129540000D01*
X170180000Y-129540000D02*
X157480000Y-129540000D01*
X154940000Y-130810000D02*
X172720000Y-130810000D01*
X172720000Y-130810000D02*
X172720000Y-107950000D01*
X172720000Y-107950000D02*
X154940000Y-107950000D01*
X154940000Y-107950000D02*
X154940000Y-130810000D01*
G04 #@! TO.C,R6*
X171596666Y-92152380D02*
X171929999Y-91676190D01*
X172168095Y-92152380D02*
X172168095Y-91152380D01*
X171787142Y-91152380D01*
X171691904Y-91200000D01*
X171644285Y-91247619D01*
X171596666Y-91342857D01*
X171596666Y-91485714D01*
X171644285Y-91580952D01*
X171691904Y-91628571D01*
X171787142Y-91676190D01*
X172168095Y-91676190D01*
X170739523Y-91152380D02*
X170929999Y-91152380D01*
X171025238Y-91200000D01*
X171072857Y-91247619D01*
X171168095Y-91390476D01*
X171215714Y-91580952D01*
X171215714Y-91961904D01*
X171168095Y-92057142D01*
X171120476Y-92104761D01*
X171025238Y-92152380D01*
X170834761Y-92152380D01*
X170739523Y-92104761D01*
X170691904Y-92057142D01*
X170644285Y-91961904D01*
X170644285Y-91723809D01*
X170691904Y-91628571D01*
X170739523Y-91580952D01*
X170834761Y-91533333D01*
X171025238Y-91533333D01*
X171120476Y-91580952D01*
X171168095Y-91628571D01*
X171215714Y-91723809D01*
G04 #@! TD*
M02*
