M48
;DRILL file {KiCad (5.0.0)} date 02/10/19 16:51:15
;FORMAT={-:-/ absolute / metric / decimal}
FMAT,2
METRIC,TZ
T1C0.700
T2C0.900
T3C1.000
T4C1.016
T5C1.240
%
G90
G05
M71
T1
X177.8Y-130.81
X177.8Y-133.35
X160.02Y-104.14
X162.56Y-104.14
X166.056Y-96.52
X168.596Y-96.52
X166.056Y-104.14
X168.596Y-104.14
X160.02Y-96.52
X162.56Y-96.52
T2
X171.136Y-96.52
X173.676Y-96.52
X171.136Y-104.14
X173.676Y-104.14
X153.67Y-88.9
X157.67Y-88.9
X154.94Y-104.14
X157.48Y-104.14
X154.94Y-96.52
X157.48Y-96.52
T3
X147.955Y-40.64
X179.07Y-40.64
X170.18Y-88.9
X172.68Y-88.9
T4
X152.4Y-115.57
X152.4Y-118.11
X152.4Y-120.65
X152.4Y-123.19
X152.4Y-125.73
X152.4Y-128.27
X152.4Y-130.81
X152.4Y-133.35
X175.26Y-115.57
X175.26Y-118.11
X175.26Y-120.65
X175.26Y-123.19
X175.26Y-125.73
X175.26Y-128.27
X175.26Y-130.81
X175.26Y-133.35
T5
X154.58Y-40.44
X154.58Y-78.94
X162.58Y-78.94
X165.33Y-40.44
T0
M30
