G04 #@! TF.GenerationSoftware,KiCad,Pcbnew,(5.0.0)*
G04 #@! TF.CreationDate,2019-02-10T16:52:55+01:00*
G04 #@! TF.ProjectId,MrReflow,4D725265666C6F772E6B696361645F70,rev?*
G04 #@! TF.SameCoordinates,Original*
G04 #@! TF.FileFunction,Copper,L1,Top,Signal*
G04 #@! TF.FilePolarity,Positive*
%FSLAX46Y46*%
G04 Gerber Fmt 4.6, Leading zero omitted, Abs format (unit mm)*
G04 Created by KiCad (PCBNEW (5.0.0)) date 02/10/19 16:52:55*
%MOMM*%
%LPD*%
G01*
G04 APERTURE LIST*
G04 #@! TA.AperFunction,ComponentPad*
%ADD10C,2.000000*%
G04 #@! TD*
G04 #@! TA.AperFunction,ComponentPad*
%ADD11C,1.860000*%
G04 #@! TD*
G04 #@! TA.AperFunction,ComponentPad*
%ADD12C,1.600000*%
G04 #@! TD*
G04 #@! TA.AperFunction,ComponentPad*
%ADD13R,1.600000X1.600000*%
G04 #@! TD*
G04 #@! TA.AperFunction,Conductor*
%ADD14C,0.100000*%
G04 #@! TD*
G04 #@! TA.AperFunction,ComponentPad*
%ADD15C,1.700000*%
G04 #@! TD*
G04 #@! TA.AperFunction,ComponentPad*
%ADD16O,1.700000X2.000000*%
G04 #@! TD*
G04 #@! TA.AperFunction,ComponentPad*
%ADD17C,1.800000*%
G04 #@! TD*
G04 #@! TA.AperFunction,ComponentPad*
%ADD18R,1.800000X1.800000*%
G04 #@! TD*
G04 #@! TA.AperFunction,ComponentPad*
%ADD19C,1.400000*%
G04 #@! TD*
G04 #@! TA.AperFunction,ComponentPad*
%ADD20O,1.400000X1.400000*%
G04 #@! TD*
G04 #@! TA.AperFunction,Conductor*
%ADD21C,0.200000*%
G04 #@! TD*
G04 #@! TA.AperFunction,Conductor*
%ADD22C,2.000000*%
G04 #@! TD*
G04 APERTURE END LIST*
D10*
G04 #@! TO.P,H2,1*
G04 #@! TO.N,Net-(H2-Pad1)*
X179070000Y-40640000D03*
G04 #@! TD*
G04 #@! TO.P,H1,1*
G04 #@! TO.N,Net-(H1-Pad1)*
X147955000Y-40640000D03*
G04 #@! TD*
D11*
G04 #@! TO.P,U1,AC/L*
G04 #@! TO.N,Net-(H1-Pad1)*
X154580000Y-40440000D03*
G04 #@! TO.P,U1,AC/N*
G04 #@! TO.N,Net-(H2-Pad1)*
X165330000Y-40440000D03*
G04 #@! TO.P,U1,VNEG*
G04 #@! TO.N,Net-(BZ1-Pad2)*
X154580000Y-78940000D03*
G04 #@! TO.P,U1,VPOS*
G04 #@! TO.N,Net-(U1-PadVPOS)*
X162580000Y-78940000D03*
G04 #@! TD*
D12*
G04 #@! TO.P,BZ1,2*
G04 #@! TO.N,Net-(BZ1-Pad2)*
X157670000Y-88900000D03*
D13*
G04 #@! TO.P,BZ1,1*
G04 #@! TO.N,Net-(BZ1-Pad1)*
X153670000Y-88900000D03*
G04 #@! TD*
D14*
G04 #@! TO.N,Net-(BZ1-Pad2)*
G04 #@! TO.C,R6*
G36*
X170804504Y-87901204D02*
X170828773Y-87904804D01*
X170852571Y-87910765D01*
X170875671Y-87919030D01*
X170897849Y-87929520D01*
X170918893Y-87942133D01*
X170938598Y-87956747D01*
X170956777Y-87973223D01*
X170973253Y-87991402D01*
X170987867Y-88011107D01*
X171000480Y-88032151D01*
X171010970Y-88054329D01*
X171019235Y-88077429D01*
X171025196Y-88101227D01*
X171028796Y-88125496D01*
X171030000Y-88150000D01*
X171030000Y-89650000D01*
X171028796Y-89674504D01*
X171025196Y-89698773D01*
X171019235Y-89722571D01*
X171010970Y-89745671D01*
X171000480Y-89767849D01*
X170987867Y-89788893D01*
X170973253Y-89808598D01*
X170956777Y-89826777D01*
X170938598Y-89843253D01*
X170918893Y-89857867D01*
X170897849Y-89870480D01*
X170875671Y-89880970D01*
X170852571Y-89889235D01*
X170828773Y-89895196D01*
X170804504Y-89898796D01*
X170780000Y-89900000D01*
X169580000Y-89900000D01*
X169555496Y-89898796D01*
X169531227Y-89895196D01*
X169507429Y-89889235D01*
X169484329Y-89880970D01*
X169462151Y-89870480D01*
X169441107Y-89857867D01*
X169421402Y-89843253D01*
X169403223Y-89826777D01*
X169386747Y-89808598D01*
X169372133Y-89788893D01*
X169359520Y-89767849D01*
X169349030Y-89745671D01*
X169340765Y-89722571D01*
X169334804Y-89698773D01*
X169331204Y-89674504D01*
X169330000Y-89650000D01*
X169330000Y-88150000D01*
X169331204Y-88125496D01*
X169334804Y-88101227D01*
X169340765Y-88077429D01*
X169349030Y-88054329D01*
X169359520Y-88032151D01*
X169372133Y-88011107D01*
X169386747Y-87991402D01*
X169403223Y-87973223D01*
X169421402Y-87956747D01*
X169441107Y-87942133D01*
X169462151Y-87929520D01*
X169484329Y-87919030D01*
X169507429Y-87910765D01*
X169531227Y-87904804D01*
X169555496Y-87901204D01*
X169580000Y-87900000D01*
X170780000Y-87900000D01*
X170804504Y-87901204D01*
X170804504Y-87901204D01*
G37*
D15*
G04 #@! TD*
G04 #@! TO.P,R6,1*
G04 #@! TO.N,Net-(BZ1-Pad2)*
X170180000Y-88900000D03*
D16*
G04 #@! TO.P,R6,2*
G04 #@! TO.N,Net-(R5-Pad1)*
X172680000Y-88900000D03*
G04 #@! TD*
D17*
G04 #@! TO.P,D4,2*
G04 #@! TO.N,Net-(D4-Pad2)*
X157480000Y-104140000D03*
D18*
G04 #@! TO.P,D4,1*
G04 #@! TO.N,Net-(D4-Pad1)*
X154940000Y-104140000D03*
G04 #@! TD*
G04 #@! TO.P,D3,1*
G04 #@! TO.N,Net-(D3-Pad1)*
X173675505Y-104140000D03*
D17*
G04 #@! TO.P,D3,2*
G04 #@! TO.N,Net-(D3-Pad2)*
X171135505Y-104140000D03*
G04 #@! TD*
G04 #@! TO.P,D2,2*
G04 #@! TO.N,Net-(D2-Pad2)*
X171135505Y-96520000D03*
D18*
G04 #@! TO.P,D2,1*
G04 #@! TO.N,Net-(D2-Pad1)*
X173675505Y-96520000D03*
G04 #@! TD*
G04 #@! TO.P,D1,1*
G04 #@! TO.N,Net-(D1-Pad1)*
X154940000Y-96520000D03*
D17*
G04 #@! TO.P,D1,2*
G04 #@! TO.N,Net-(D1-Pad2)*
X157480000Y-96520000D03*
G04 #@! TD*
D19*
G04 #@! TO.P,R5,1*
G04 #@! TO.N,Net-(R5-Pad1)*
X177800000Y-130810000D03*
D20*
G04 #@! TO.P,R5,2*
G04 #@! TO.N,Net-(R5-Pad2)*
X177800000Y-133350000D03*
G04 #@! TD*
G04 #@! TO.P,R4,2*
G04 #@! TO.N,Net-(BZ1-Pad2)*
X162560000Y-104140000D03*
D19*
G04 #@! TO.P,R4,1*
G04 #@! TO.N,Net-(D4-Pad2)*
X160020000Y-104140000D03*
G04 #@! TD*
G04 #@! TO.P,R3,1*
G04 #@! TO.N,Net-(D3-Pad2)*
X168595505Y-104140000D03*
D20*
G04 #@! TO.P,R3,2*
G04 #@! TO.N,Net-(BZ1-Pad2)*
X166055505Y-104140000D03*
G04 #@! TD*
G04 #@! TO.P,R2,2*
G04 #@! TO.N,Net-(BZ1-Pad2)*
X166055505Y-96520000D03*
D19*
G04 #@! TO.P,R2,1*
G04 #@! TO.N,Net-(D2-Pad2)*
X168595505Y-96520000D03*
G04 #@! TD*
G04 #@! TO.P,R1,1*
G04 #@! TO.N,Net-(D1-Pad2)*
X160020000Y-96520000D03*
D20*
G04 #@! TO.P,R1,2*
G04 #@! TO.N,Net-(BZ1-Pad2)*
X162560000Y-96520000D03*
G04 #@! TD*
D17*
G04 #@! TO.P,U2,8*
G04 #@! TO.N,Net-(U2-Pad8)*
X152400000Y-115570000D03*
G04 #@! TO.P,U2,7*
G04 #@! TO.N,Net-(U2-Pad7)*
X152400000Y-118110000D03*
G04 #@! TO.P,U2,6*
G04 #@! TO.N,Net-(BZ1-Pad1)*
X152400000Y-120650000D03*
G04 #@! TO.P,U2,5*
G04 #@! TO.N,Net-(U2-Pad5)*
X152400000Y-123190000D03*
G04 #@! TO.P,U2,4*
G04 #@! TO.N,Net-(U2-Pad4)*
X152400000Y-125730000D03*
G04 #@! TO.P,U2,3*
G04 #@! TO.N,Net-(U2-Pad3)*
X152400000Y-128270000D03*
G04 #@! TO.P,U2,2*
G04 #@! TO.N,Net-(BZ1-Pad2)*
X152400000Y-130810000D03*
G04 #@! TO.P,U2,1*
G04 #@! TO.N,Net-(U1-PadVPOS)*
X152400000Y-133350000D03*
G04 #@! TO.P,U2,16*
G04 #@! TO.N,Net-(R5-Pad2)*
X175260000Y-133350000D03*
G04 #@! TO.P,U2,15*
G04 #@! TO.N,Net-(D1-Pad1)*
X175260000Y-130810000D03*
G04 #@! TO.P,U2,14*
G04 #@! TO.N,Net-(D4-Pad1)*
X175260000Y-128270000D03*
G04 #@! TO.P,U2,13*
G04 #@! TO.N,Net-(D3-Pad1)*
X175260000Y-125730000D03*
G04 #@! TO.P,U2,12*
G04 #@! TO.N,Net-(D2-Pad1)*
X175260000Y-123190000D03*
G04 #@! TO.P,U2,11*
G04 #@! TO.N,Net-(U2-Pad11)*
X175260000Y-120650000D03*
G04 #@! TO.P,U2,10*
G04 #@! TO.N,Net-(R5-Pad1)*
X175260000Y-118110000D03*
G04 #@! TO.P,U2,9*
G04 #@! TO.N,Net-(U2-Pad9)*
X175260000Y-115570000D03*
G04 #@! TD*
D21*
G04 #@! TO.N,*
X144145000Y-46990000D02*
X143250010Y-46990000D01*
X160020000Y-46990000D02*
X144145000Y-46990000D01*
X158115000Y-47625000D02*
X183139990Y-47625000D01*
X183139990Y-47625000D02*
X143250010Y-47625000D01*
X143250010Y-47625000D02*
X143510000Y-47625000D01*
X160655000Y-46355000D02*
X160655000Y-36195000D01*
X160020000Y-46990000D02*
X160655000Y-46990000D01*
X160655000Y-36195000D02*
X160655000Y-46990000D01*
X160655000Y-46990000D02*
X183139990Y-46990000D01*
D22*
G04 #@! TO.N,Net-(H1-Pad1)*
X148155000Y-40440000D02*
X147955000Y-40640000D01*
G04 #@! TO.N,Net-(H2-Pad1)*
X178870000Y-40440000D02*
X179070000Y-40640000D01*
G04 #@! TD*
M02*
