<?xml version="1.0" standalone="no"?>
<!DOCTYPE svg PUBLIC "-//W3C//DTD SVG 1.1//EN"
"http://www.w3.org/Graphics/SVG/1.1/DTD/svg11.dtd">
<svg width="3331.62" height="7861.15" viewBox="0 0 3331.62 7861.15" version="1.1"
xmlns="http://www.w3.org/2000/svg"
xmlns:xlink="http://www.w3.org/1999/xlink">
<circle cx="2879" cy="7680" r="27" style=""/>
<circle cx="2679" cy="7680" r="27" style=""/>
<circle cx="2679" cy="7480" r="27" style=""/>
<circle cx="2679" cy="7280" r="27" style=""/>
<circle cx="2679" cy="7080" r="27" style=""/>
<circle cx="2679" cy="6880" r="27" style=""/>
<circle cx="2679" cy="6680" r="27" style=""/>
<circle cx="2679" cy="6481" r="27" style=""/>
<circle cx="2679" cy="6281" r="27" style=""/>
<circle cx="2554" cy="5381" r="27" style=""/>
<circle cx="2354" cy="5381" r="27" style=""/>
<circle cx="2154" cy="5381" r="27" style=""/>
<circle cx="1954" cy="5381" r="27" style=""/>
<circle cx="1679" cy="5381" r="27" style=""/>
<circle cx="1479" cy="5381" r="27" style=""/>
<circle cx="1279" cy="5381" r="27" style=""/>
<circle cx="1079" cy="5381" r="27" style=""/>
<circle cx="1079" cy="4781" r="27" style=""/>
<circle cx="1279" cy="4781" r="27" style=""/>
<circle cx="1479" cy="4781" r="27" style=""/>
<circle cx="1679" cy="4781" r="27" style=""/>
<circle cx="1954" cy="4781" r="27" style=""/>
<circle cx="2154" cy="4781" r="27" style=""/>
<circle cx="2354" cy="4781" r="27" style=""/>
<circle cx="2554" cy="4781" r="27" style=""/>
<circle cx="2475" cy="4181" r="27" style=""/>
<circle cx="2279" cy="4181" r="27" style=""/>
<circle cx="1680" cy="3397" r="27" style=""/>
<circle cx="1051" cy="3397" r="27" style=""/>
<circle cx="979" cy="4181" r="27" style=""/>
<circle cx="1294" cy="4181" r="27" style=""/>
<circle cx="879" cy="6281" r="27" style=""/>
<circle cx="879" cy="6481" r="27" style=""/>
<circle cx="879" cy="6680" r="27" style=""/>
<circle cx="879" cy="6880" r="27" style=""/>
<circle cx="879" cy="7080" r="27" style=""/>
<circle cx="879" cy="7280" r="27" style=""/>
<circle cx="879" cy="7480" r="27" style=""/>
<circle cx="879" cy="7680" r="27" style=""/>
<circle cx="2879" cy="7480" r="27" style=""/>
<circle cx="2979" cy="382" r="27" style=""/>
<circle cx="1897" cy="366" r="27" style=""/>
<circle cx="1051" cy="366" r="27" style=""/>
<circle cx="529" cy="382" r="27" style=""/>
</svg>
