M48
; DRILL file {KiCad (6.0.2)} date Wed 16 Mar 2022 09:20:14 PM UTC
; FORMAT={-:-/ absolute / metric / decimal}
; #@! TF.CreationDate,2022-03-16T21:20:14+00:00
; #@! TF.GenerationSoftware,Kicad,Pcbnew,(6.0.2)
; #@! TF.FileFunction,Plated,1,2,PTH
FMAT,2
METRIC
; #@! TA.AperFunction,Plated,PTH,ViaDrill
T1C0.400
; #@! TA.AperFunction,Plated,PTH,ComponentDrill
T2C1.000
; #@! TA.AperFunction,Plated,PTH,ComponentDrill
T3C1.400
; #@! TA.AperFunction,Plated,PTH,ComponentDrill
T4C3.000
; #@! TA.AperFunction,Plated,PTH,ViaDrill
T5C4.000
%
G90
G05
T1
X78.38Y-34.32
X78.88Y-28.32
X82.38Y-55.87
X85.88Y-36.37
X85.88Y-52.37
X87.88Y-36.37
X91.88Y-47.37
X92.38Y-55.02
X94.88Y-29.82
X94.88Y-53.37
X96.38Y-38.82
X97.38Y-32.32
X97.38Y-37.82
X97.88Y-26.32
X100.88Y-57.37
X104.88Y-33.37
T2
X85.81Y-60.37
X86.305Y-45.62
X88.35Y-60.37
X88.845Y-45.62
X90.89Y-60.37
X91.385Y-45.62
X93.43Y-60.37
X93.925Y-45.62
X96.465Y-45.62
X104.38Y-24.795
X104.38Y-27.335
X104.38Y-29.875
T3
X105.102Y-99.83
X105.102Y-104.91
T4
X80.13Y-107.527
X82.88Y-69.028
X90.88Y-69.028
X90.88Y-107.527
T5
X68.88Y-26.37
X68.88Y-114.37
X115.88Y-26.37
X115.88Y-114.37
T0
M30
