G04 #@! TF.GenerationSoftware,KiCad,Pcbnew,(6.0.2)*
G04 #@! TF.CreationDate,2022-03-16T21:20:06+00:00*
G04 #@! TF.ProjectId,MrReflow,4d725265-666c-46f7-972e-6b696361645f,rev?*
G04 #@! TF.SameCoordinates,Original*
G04 #@! TF.FileFunction,Legend,Top*
G04 #@! TF.FilePolarity,Positive*
%FSLAX46Y46*%
G04 Gerber Fmt 4.6, Leading zero omitted, Abs format (unit mm)*
G04 Created by KiCad (PCBNEW (6.0.2)) date 2022-03-16 21:20:06*
%MOMM*%
%LPD*%
G01*
G04 APERTURE LIST*
%ADD10C,0.150000*%
%ADD11C,0.120000*%
%ADD12C,0.010000*%
G04 APERTURE END LIST*
D10*
X97832380Y-77274761D02*
X97832380Y-75274761D01*
X98499047Y-76703333D01*
X99165714Y-75274761D01*
X99165714Y-77274761D01*
X100118095Y-77274761D02*
X100118095Y-75941428D01*
X100118095Y-76322380D02*
X100213333Y-76131904D01*
X100308571Y-76036666D01*
X100499047Y-75941428D01*
X100689523Y-75941428D01*
X102499047Y-77274761D02*
X101832380Y-76322380D01*
X101356190Y-77274761D02*
X101356190Y-75274761D01*
X102118095Y-75274761D01*
X102308571Y-75370000D01*
X102403809Y-75465238D01*
X102499047Y-75655714D01*
X102499047Y-75941428D01*
X102403809Y-76131904D01*
X102308571Y-76227142D01*
X102118095Y-76322380D01*
X101356190Y-76322380D01*
X104118095Y-77179523D02*
X103927619Y-77274761D01*
X103546666Y-77274761D01*
X103356190Y-77179523D01*
X103260952Y-76989047D01*
X103260952Y-76227142D01*
X103356190Y-76036666D01*
X103546666Y-75941428D01*
X103927619Y-75941428D01*
X104118095Y-76036666D01*
X104213333Y-76227142D01*
X104213333Y-76417619D01*
X103260952Y-76608095D01*
X104784761Y-75941428D02*
X105546666Y-75941428D01*
X105070476Y-77274761D02*
X105070476Y-75560476D01*
X105165714Y-75370000D01*
X105356190Y-75274761D01*
X105546666Y-75274761D01*
X106499047Y-77274761D02*
X106308571Y-77179523D01*
X106213333Y-76989047D01*
X106213333Y-75274761D01*
X107546666Y-77274761D02*
X107356190Y-77179523D01*
X107260952Y-77084285D01*
X107165714Y-76893809D01*
X107165714Y-76322380D01*
X107260952Y-76131904D01*
X107356190Y-76036666D01*
X107546666Y-75941428D01*
X107832380Y-75941428D01*
X108022857Y-76036666D01*
X108118095Y-76131904D01*
X108213333Y-76322380D01*
X108213333Y-76893809D01*
X108118095Y-77084285D01*
X108022857Y-77179523D01*
X107832380Y-77274761D01*
X107546666Y-77274761D01*
X108880000Y-75941428D02*
X109260952Y-77274761D01*
X109641904Y-76322380D01*
X110022857Y-77274761D01*
X110403809Y-75941428D01*
X112689523Y-77274761D02*
X112689523Y-75274761D01*
X113356190Y-76703333D01*
X114022857Y-75274761D01*
X114022857Y-77274761D01*
X114975238Y-77274761D02*
X114975238Y-75274761D01*
X116118095Y-77274761D02*
X115260952Y-76131904D01*
X116118095Y-75274761D02*
X114975238Y-76417619D01*
X116975238Y-77274761D02*
X116975238Y-75274761D01*
X117927619Y-77274761D02*
X117927619Y-75274761D01*
X101354880Y-102703333D02*
X102069166Y-102703333D01*
X102212023Y-102750952D01*
X102307261Y-102846190D01*
X102354880Y-102989047D01*
X102354880Y-103084285D01*
X102354880Y-101703333D02*
X102354880Y-102274761D01*
X102354880Y-101989047D02*
X101354880Y-101989047D01*
X101497738Y-102084285D01*
X101592976Y-102179523D01*
X101640595Y-102274761D01*
X102832380Y-61108095D02*
X101832380Y-61108095D01*
X101832380Y-60870000D01*
X101880000Y-60727142D01*
X101975238Y-60631904D01*
X102070476Y-60584285D01*
X102260952Y-60536666D01*
X102403809Y-60536666D01*
X102594285Y-60584285D01*
X102689523Y-60631904D01*
X102784761Y-60727142D01*
X102832380Y-60870000D01*
X102832380Y-61108095D01*
X102832380Y-59584285D02*
X102832380Y-60155714D01*
X102832380Y-59870000D02*
X101832380Y-59870000D01*
X101975238Y-59965238D01*
X102070476Y-60060476D01*
X102118095Y-60155714D01*
X104732380Y-64234285D02*
X104732380Y-64805714D01*
X104732380Y-64520000D02*
X103732380Y-64520000D01*
X103875238Y-64615238D01*
X103970476Y-64710476D01*
X104018095Y-64805714D01*
X83237142Y-52986666D02*
X83284761Y-53034285D01*
X83332380Y-53177142D01*
X83332380Y-53272380D01*
X83284761Y-53415238D01*
X83189523Y-53510476D01*
X83094285Y-53558095D01*
X82903809Y-53605714D01*
X82760952Y-53605714D01*
X82570476Y-53558095D01*
X82475238Y-53510476D01*
X82380000Y-53415238D01*
X82332380Y-53272380D01*
X82332380Y-53177142D01*
X82380000Y-53034285D01*
X82427619Y-52986666D01*
X82332380Y-52081904D02*
X82332380Y-52558095D01*
X82808571Y-52605714D01*
X82760952Y-52558095D01*
X82713333Y-52462857D01*
X82713333Y-52224761D01*
X82760952Y-52129523D01*
X82808571Y-52081904D01*
X82903809Y-52034285D01*
X83141904Y-52034285D01*
X83237142Y-52081904D01*
X83284761Y-52129523D01*
X83332380Y-52224761D01*
X83332380Y-52462857D01*
X83284761Y-52558095D01*
X83237142Y-52605714D01*
X105832380Y-33962857D02*
X105356190Y-34296190D01*
X105832380Y-34534285D02*
X104832380Y-34534285D01*
X104832380Y-34153333D01*
X104880000Y-34058095D01*
X104927619Y-34010476D01*
X105022857Y-33962857D01*
X105165714Y-33962857D01*
X105260952Y-34010476D01*
X105308571Y-34058095D01*
X105356190Y-34153333D01*
X105356190Y-34534285D01*
X105832380Y-33010476D02*
X105832380Y-33581904D01*
X105832380Y-33296190D02*
X104832380Y-33296190D01*
X104975238Y-33391428D01*
X105070476Y-33486666D01*
X105118095Y-33581904D01*
X104832380Y-32105714D02*
X104832380Y-32581904D01*
X105308571Y-32629523D01*
X105260952Y-32581904D01*
X105213333Y-32486666D01*
X105213333Y-32248571D01*
X105260952Y-32153333D01*
X105308571Y-32105714D01*
X105403809Y-32058095D01*
X105641904Y-32058095D01*
X105737142Y-32105714D01*
X105784761Y-32153333D01*
X105832380Y-32248571D01*
X105832380Y-32486666D01*
X105784761Y-32581904D01*
X105737142Y-32629523D01*
X78237142Y-29486666D02*
X78284761Y-29534285D01*
X78332380Y-29677142D01*
X78332380Y-29772380D01*
X78284761Y-29915238D01*
X78189523Y-30010476D01*
X78094285Y-30058095D01*
X77903809Y-30105714D01*
X77760952Y-30105714D01*
X77570476Y-30058095D01*
X77475238Y-30010476D01*
X77380000Y-29915238D01*
X77332380Y-29772380D01*
X77332380Y-29677142D01*
X77380000Y-29534285D01*
X77427619Y-29486666D01*
X77760952Y-28915238D02*
X77713333Y-29010476D01*
X77665714Y-29058095D01*
X77570476Y-29105714D01*
X77522857Y-29105714D01*
X77427619Y-29058095D01*
X77380000Y-29010476D01*
X77332380Y-28915238D01*
X77332380Y-28724761D01*
X77380000Y-28629523D01*
X77427619Y-28581904D01*
X77522857Y-28534285D01*
X77570476Y-28534285D01*
X77665714Y-28581904D01*
X77713333Y-28629523D01*
X77760952Y-28724761D01*
X77760952Y-28915238D01*
X77808571Y-29010476D01*
X77856190Y-29058095D01*
X77951428Y-29105714D01*
X78141904Y-29105714D01*
X78237142Y-29058095D01*
X78284761Y-29010476D01*
X78332380Y-28915238D01*
X78332380Y-28724761D01*
X78284761Y-28629523D01*
X78237142Y-28581904D01*
X78141904Y-28534285D01*
X77951428Y-28534285D01*
X77856190Y-28581904D01*
X77808571Y-28629523D01*
X77760952Y-28724761D01*
X82713333Y-43727142D02*
X82665714Y-43774761D01*
X82522857Y-43822380D01*
X82427619Y-43822380D01*
X82284761Y-43774761D01*
X82189523Y-43679523D01*
X82141904Y-43584285D01*
X82094285Y-43393809D01*
X82094285Y-43250952D01*
X82141904Y-43060476D01*
X82189523Y-42965238D01*
X82284761Y-42870000D01*
X82427619Y-42822380D01*
X82522857Y-42822380D01*
X82665714Y-42870000D01*
X82713333Y-42917619D01*
X83570476Y-42822380D02*
X83380000Y-42822380D01*
X83284761Y-42870000D01*
X83237142Y-42917619D01*
X83141904Y-43060476D01*
X83094285Y-43250952D01*
X83094285Y-43631904D01*
X83141904Y-43727142D01*
X83189523Y-43774761D01*
X83284761Y-43822380D01*
X83475238Y-43822380D01*
X83570476Y-43774761D01*
X83618095Y-43727142D01*
X83665714Y-43631904D01*
X83665714Y-43393809D01*
X83618095Y-43298571D01*
X83570476Y-43250952D01*
X83475238Y-43203333D01*
X83284761Y-43203333D01*
X83189523Y-43250952D01*
X83141904Y-43298571D01*
X83094285Y-43393809D01*
X95987142Y-53812857D02*
X96034761Y-53860476D01*
X96082380Y-54003333D01*
X96082380Y-54098571D01*
X96034761Y-54241428D01*
X95939523Y-54336666D01*
X95844285Y-54384285D01*
X95653809Y-54431904D01*
X95510952Y-54431904D01*
X95320476Y-54384285D01*
X95225238Y-54336666D01*
X95130000Y-54241428D01*
X95082380Y-54098571D01*
X95082380Y-54003333D01*
X95130000Y-53860476D01*
X95177619Y-53812857D01*
X96082380Y-52860476D02*
X96082380Y-53431904D01*
X96082380Y-53146190D02*
X95082380Y-53146190D01*
X95225238Y-53241428D01*
X95320476Y-53336666D01*
X95368095Y-53431904D01*
X95082380Y-52241428D02*
X95082380Y-52146190D01*
X95130000Y-52050952D01*
X95177619Y-52003333D01*
X95272857Y-51955714D01*
X95463333Y-51908095D01*
X95701428Y-51908095D01*
X95891904Y-51955714D01*
X95987142Y-52003333D01*
X96034761Y-52050952D01*
X96082380Y-52146190D01*
X96082380Y-52241428D01*
X96034761Y-52336666D01*
X95987142Y-52384285D01*
X95891904Y-52431904D01*
X95701428Y-52479523D01*
X95463333Y-52479523D01*
X95272857Y-52431904D01*
X95177619Y-52384285D01*
X95130000Y-52336666D01*
X95082380Y-52241428D01*
X68702380Y-86321785D02*
X67702380Y-86321785D01*
X67702380Y-85940833D01*
X67750000Y-85845595D01*
X67797619Y-85797976D01*
X67892857Y-85750357D01*
X68035714Y-85750357D01*
X68130952Y-85797976D01*
X68178571Y-85845595D01*
X68226190Y-85940833D01*
X68226190Y-86321785D01*
X68654761Y-85369404D02*
X68702380Y-85226547D01*
X68702380Y-84988452D01*
X68654761Y-84893214D01*
X68607142Y-84845595D01*
X68511904Y-84797976D01*
X68416666Y-84797976D01*
X68321428Y-84845595D01*
X68273809Y-84893214D01*
X68226190Y-84988452D01*
X68178571Y-85178928D01*
X68130952Y-85274166D01*
X68083333Y-85321785D01*
X67988095Y-85369404D01*
X67892857Y-85369404D01*
X67797619Y-85321785D01*
X67750000Y-85274166D01*
X67702380Y-85178928D01*
X67702380Y-84940833D01*
X67750000Y-84797976D01*
X68702380Y-83845595D02*
X68702380Y-84417023D01*
X68702380Y-84131309D02*
X67702380Y-84131309D01*
X67845238Y-84226547D01*
X67940476Y-84321785D01*
X67988095Y-84417023D01*
X104046666Y-21917380D02*
X104046666Y-22631666D01*
X103999047Y-22774523D01*
X103903809Y-22869761D01*
X103760952Y-22917380D01*
X103665714Y-22917380D01*
X104475238Y-22012619D02*
X104522857Y-21965000D01*
X104618095Y-21917380D01*
X104856190Y-21917380D01*
X104951428Y-21965000D01*
X104999047Y-22012619D01*
X105046666Y-22107857D01*
X105046666Y-22203095D01*
X104999047Y-22345952D01*
X104427619Y-22917380D01*
X105046666Y-22917380D01*
X78237142Y-27486666D02*
X78284761Y-27534285D01*
X78332380Y-27677142D01*
X78332380Y-27772380D01*
X78284761Y-27915238D01*
X78189523Y-28010476D01*
X78094285Y-28058095D01*
X77903809Y-28105714D01*
X77760952Y-28105714D01*
X77570476Y-28058095D01*
X77475238Y-28010476D01*
X77380000Y-27915238D01*
X77332380Y-27772380D01*
X77332380Y-27677142D01*
X77380000Y-27534285D01*
X77427619Y-27486666D01*
X77427619Y-27105714D02*
X77380000Y-27058095D01*
X77332380Y-26962857D01*
X77332380Y-26724761D01*
X77380000Y-26629523D01*
X77427619Y-26581904D01*
X77522857Y-26534285D01*
X77618095Y-26534285D01*
X77760952Y-26581904D01*
X78332380Y-27153333D01*
X78332380Y-26534285D01*
X79237142Y-43822380D02*
X78903809Y-43346190D01*
X78665714Y-43822380D02*
X78665714Y-42822380D01*
X79046666Y-42822380D01*
X79141904Y-42870000D01*
X79189523Y-42917619D01*
X79237142Y-43012857D01*
X79237142Y-43155714D01*
X79189523Y-43250952D01*
X79141904Y-43298571D01*
X79046666Y-43346190D01*
X78665714Y-43346190D01*
X80189523Y-43822380D02*
X79618095Y-43822380D01*
X79903809Y-43822380D02*
X79903809Y-42822380D01*
X79808571Y-42965238D01*
X79713333Y-43060476D01*
X79618095Y-43108095D01*
X80522857Y-42822380D02*
X81189523Y-42822380D01*
X80760952Y-43822380D01*
X98487142Y-53812857D02*
X98534761Y-53860476D01*
X98582380Y-54003333D01*
X98582380Y-54098571D01*
X98534761Y-54241428D01*
X98439523Y-54336666D01*
X98344285Y-54384285D01*
X98153809Y-54431904D01*
X98010952Y-54431904D01*
X97820476Y-54384285D01*
X97725238Y-54336666D01*
X97630000Y-54241428D01*
X97582380Y-54098571D01*
X97582380Y-54003333D01*
X97630000Y-53860476D01*
X97677619Y-53812857D01*
X98582380Y-52860476D02*
X98582380Y-53431904D01*
X98582380Y-53146190D02*
X97582380Y-53146190D01*
X97725238Y-53241428D01*
X97820476Y-53336666D01*
X97868095Y-53431904D01*
X98582380Y-51908095D02*
X98582380Y-52479523D01*
X98582380Y-52193809D02*
X97582380Y-52193809D01*
X97725238Y-52289047D01*
X97820476Y-52384285D01*
X97868095Y-52479523D01*
X103237142Y-43786666D02*
X103284761Y-43834285D01*
X103332380Y-43977142D01*
X103332380Y-44072380D01*
X103284761Y-44215238D01*
X103189523Y-44310476D01*
X103094285Y-44358095D01*
X102903809Y-44405714D01*
X102760952Y-44405714D01*
X102570476Y-44358095D01*
X102475238Y-44310476D01*
X102380000Y-44215238D01*
X102332380Y-44072380D01*
X102332380Y-43977142D01*
X102380000Y-43834285D01*
X102427619Y-43786666D01*
X102665714Y-42929523D02*
X103332380Y-42929523D01*
X102284761Y-43167619D02*
X102999047Y-43405714D01*
X102999047Y-42786666D01*
X105832380Y-45012857D02*
X105356190Y-45346190D01*
X105832380Y-45584285D02*
X104832380Y-45584285D01*
X104832380Y-45203333D01*
X104880000Y-45108095D01*
X104927619Y-45060476D01*
X105022857Y-45012857D01*
X105165714Y-45012857D01*
X105260952Y-45060476D01*
X105308571Y-45108095D01*
X105356190Y-45203333D01*
X105356190Y-45584285D01*
X105832380Y-44060476D02*
X105832380Y-44631904D01*
X105832380Y-44346190D02*
X104832380Y-44346190D01*
X104975238Y-44441428D01*
X105070476Y-44536666D01*
X105118095Y-44631904D01*
X105165714Y-43203333D02*
X105832380Y-43203333D01*
X104784761Y-43441428D02*
X105499047Y-43679523D01*
X105499047Y-43060476D01*
X74332380Y-41034285D02*
X73856190Y-41367619D01*
X74332380Y-41605714D02*
X73332380Y-41605714D01*
X73332380Y-41224761D01*
X73380000Y-41129523D01*
X73427619Y-41081904D01*
X73522857Y-41034285D01*
X73665714Y-41034285D01*
X73760952Y-41081904D01*
X73808571Y-41129523D01*
X73856190Y-41224761D01*
X73856190Y-41605714D01*
X74284761Y-40224761D02*
X74332380Y-40320000D01*
X74332380Y-40510476D01*
X74284761Y-40605714D01*
X74189523Y-40653333D01*
X73808571Y-40653333D01*
X73713333Y-40605714D01*
X73665714Y-40510476D01*
X73665714Y-40320000D01*
X73713333Y-40224761D01*
X73808571Y-40177142D01*
X73903809Y-40177142D01*
X73999047Y-40653333D01*
X74284761Y-39796190D02*
X74332380Y-39700952D01*
X74332380Y-39510476D01*
X74284761Y-39415238D01*
X74189523Y-39367619D01*
X74141904Y-39367619D01*
X74046666Y-39415238D01*
X73999047Y-39510476D01*
X73999047Y-39653333D01*
X73951428Y-39748571D01*
X73856190Y-39796190D01*
X73808571Y-39796190D01*
X73713333Y-39748571D01*
X73665714Y-39653333D01*
X73665714Y-39510476D01*
X73713333Y-39415238D01*
X74284761Y-38558095D02*
X74332380Y-38653333D01*
X74332380Y-38843809D01*
X74284761Y-38939047D01*
X74189523Y-38986666D01*
X73808571Y-38986666D01*
X73713333Y-38939047D01*
X73665714Y-38843809D01*
X73665714Y-38653333D01*
X73713333Y-38558095D01*
X73808571Y-38510476D01*
X73903809Y-38510476D01*
X73999047Y-38986666D01*
X73665714Y-38224761D02*
X73665714Y-37843809D01*
X73332380Y-38081904D02*
X74189523Y-38081904D01*
X74284761Y-38034285D01*
X74332380Y-37939047D01*
X74332380Y-37843809D01*
X74332380Y-36986666D02*
X74332380Y-37558095D01*
X74332380Y-37272380D02*
X73332380Y-37272380D01*
X73475238Y-37367619D01*
X73570476Y-37462857D01*
X73618095Y-37558095D01*
X93987142Y-52836666D02*
X94034761Y-52884285D01*
X94082380Y-53027142D01*
X94082380Y-53122380D01*
X94034761Y-53265238D01*
X93939523Y-53360476D01*
X93844285Y-53408095D01*
X93653809Y-53455714D01*
X93510952Y-53455714D01*
X93320476Y-53408095D01*
X93225238Y-53360476D01*
X93130000Y-53265238D01*
X93082380Y-53122380D01*
X93082380Y-53027142D01*
X93130000Y-52884285D01*
X93177619Y-52836666D01*
X93082380Y-52503333D02*
X93082380Y-51836666D01*
X94082380Y-52265238D01*
X73808571Y-51415238D02*
X73856190Y-51272380D01*
X73903809Y-51224761D01*
X73999047Y-51177142D01*
X74141904Y-51177142D01*
X74237142Y-51224761D01*
X74284761Y-51272380D01*
X74332380Y-51367619D01*
X74332380Y-51748571D01*
X73332380Y-51748571D01*
X73332380Y-51415238D01*
X73380000Y-51320000D01*
X73427619Y-51272380D01*
X73522857Y-51224761D01*
X73618095Y-51224761D01*
X73713333Y-51272380D01*
X73760952Y-51320000D01*
X73808571Y-51415238D01*
X73808571Y-51748571D01*
X74332380Y-50605714D02*
X74284761Y-50700952D01*
X74237142Y-50748571D01*
X74141904Y-50796190D01*
X73856190Y-50796190D01*
X73760952Y-50748571D01*
X73713333Y-50700952D01*
X73665714Y-50605714D01*
X73665714Y-50462857D01*
X73713333Y-50367619D01*
X73760952Y-50320000D01*
X73856190Y-50272380D01*
X74141904Y-50272380D01*
X74237142Y-50320000D01*
X74284761Y-50367619D01*
X74332380Y-50462857D01*
X74332380Y-50605714D01*
X74332380Y-49700952D02*
X74284761Y-49796190D01*
X74237142Y-49843809D01*
X74141904Y-49891428D01*
X73856190Y-49891428D01*
X73760952Y-49843809D01*
X73713333Y-49796190D01*
X73665714Y-49700952D01*
X73665714Y-49558095D01*
X73713333Y-49462857D01*
X73760952Y-49415238D01*
X73856190Y-49367619D01*
X74141904Y-49367619D01*
X74237142Y-49415238D01*
X74284761Y-49462857D01*
X74332380Y-49558095D01*
X74332380Y-49700952D01*
X73665714Y-49081904D02*
X73665714Y-48700952D01*
X73332380Y-48939047D02*
X74189523Y-48939047D01*
X74284761Y-48891428D01*
X74332380Y-48796190D01*
X74332380Y-48700952D01*
X74332380Y-47843809D02*
X74332380Y-48415238D01*
X74332380Y-48129523D02*
X73332380Y-48129523D01*
X73475238Y-48224761D01*
X73570476Y-48320000D01*
X73618095Y-48415238D01*
X80737142Y-29486666D02*
X80784761Y-29534285D01*
X80832380Y-29677142D01*
X80832380Y-29772380D01*
X80784761Y-29915238D01*
X80689523Y-30010476D01*
X80594285Y-30058095D01*
X80403809Y-30105714D01*
X80260952Y-30105714D01*
X80070476Y-30058095D01*
X79975238Y-30010476D01*
X79880000Y-29915238D01*
X79832380Y-29772380D01*
X79832380Y-29677142D01*
X79880000Y-29534285D01*
X79927619Y-29486666D01*
X80832380Y-29010476D02*
X80832380Y-28820000D01*
X80784761Y-28724761D01*
X80737142Y-28677142D01*
X80594285Y-28581904D01*
X80403809Y-28534285D01*
X80022857Y-28534285D01*
X79927619Y-28581904D01*
X79880000Y-28629523D01*
X79832380Y-28724761D01*
X79832380Y-28915238D01*
X79880000Y-29010476D01*
X79927619Y-29058095D01*
X80022857Y-29105714D01*
X80260952Y-29105714D01*
X80356190Y-29058095D01*
X80403809Y-29010476D01*
X80451428Y-28915238D01*
X80451428Y-28724761D01*
X80403809Y-28629523D01*
X80356190Y-28581904D01*
X80260952Y-28534285D01*
X80737142Y-52986666D02*
X80784761Y-53034285D01*
X80832380Y-53177142D01*
X80832380Y-53272380D01*
X80784761Y-53415238D01*
X80689523Y-53510476D01*
X80594285Y-53558095D01*
X80403809Y-53605714D01*
X80260952Y-53605714D01*
X80070476Y-53558095D01*
X79975238Y-53510476D01*
X79880000Y-53415238D01*
X79832380Y-53272380D01*
X79832380Y-53177142D01*
X79880000Y-53034285D01*
X79927619Y-52986666D01*
X80832380Y-52034285D02*
X80832380Y-52605714D01*
X80832380Y-52320000D02*
X79832380Y-52320000D01*
X79975238Y-52415238D01*
X80070476Y-52510476D01*
X80118095Y-52605714D01*
X80832380Y-36462857D02*
X80356190Y-36796190D01*
X80832380Y-37034285D02*
X79832380Y-37034285D01*
X79832380Y-36653333D01*
X79880000Y-36558095D01*
X79927619Y-36510476D01*
X80022857Y-36462857D01*
X80165714Y-36462857D01*
X80260952Y-36510476D01*
X80308571Y-36558095D01*
X80356190Y-36653333D01*
X80356190Y-37034285D01*
X80832380Y-35510476D02*
X80832380Y-36081904D01*
X80832380Y-35796190D02*
X79832380Y-35796190D01*
X79975238Y-35891428D01*
X80070476Y-35986666D01*
X80118095Y-36081904D01*
X79832380Y-34653333D02*
X79832380Y-34843809D01*
X79880000Y-34939047D01*
X79927619Y-34986666D01*
X80070476Y-35081904D01*
X80260952Y-35129523D01*
X80641904Y-35129523D01*
X80737142Y-35081904D01*
X80784761Y-35034285D01*
X80832380Y-34939047D01*
X80832380Y-34748571D01*
X80784761Y-34653333D01*
X80737142Y-34605714D01*
X80641904Y-34558095D01*
X80403809Y-34558095D01*
X80308571Y-34605714D01*
X80260952Y-34653333D01*
X80213333Y-34748571D01*
X80213333Y-34939047D01*
X80260952Y-35034285D01*
X80308571Y-35081904D01*
X80403809Y-35129523D01*
X103332380Y-33875357D02*
X102856190Y-34208690D01*
X103332380Y-34446785D02*
X102332380Y-34446785D01*
X102332380Y-34065833D01*
X102380000Y-33970595D01*
X102427619Y-33922976D01*
X102522857Y-33875357D01*
X102665714Y-33875357D01*
X102760952Y-33922976D01*
X102808571Y-33970595D01*
X102856190Y-34065833D01*
X102856190Y-34446785D01*
X103332380Y-32922976D02*
X103332380Y-33494404D01*
X103332380Y-33208690D02*
X102332380Y-33208690D01*
X102475238Y-33303928D01*
X102570476Y-33399166D01*
X102618095Y-33494404D01*
X102332380Y-32589642D02*
X102332380Y-31970595D01*
X102713333Y-32303928D01*
X102713333Y-32161071D01*
X102760952Y-32065833D01*
X102808571Y-32018214D01*
X102903809Y-31970595D01*
X103141904Y-31970595D01*
X103237142Y-32018214D01*
X103284761Y-32065833D01*
X103332380Y-32161071D01*
X103332380Y-32446785D01*
X103284761Y-32542023D01*
X103237142Y-32589642D01*
X106832380Y-28081904D02*
X107641904Y-28081904D01*
X107737142Y-28034285D01*
X107784761Y-27986666D01*
X107832380Y-27891428D01*
X107832380Y-27700952D01*
X107784761Y-27605714D01*
X107737142Y-27558095D01*
X107641904Y-27510476D01*
X106832380Y-27510476D01*
X107165714Y-26605714D02*
X107832380Y-26605714D01*
X106784761Y-26843809D02*
X107499047Y-27081904D01*
X107499047Y-26462857D01*
X83582380Y-53461904D02*
X84391904Y-53461904D01*
X84487142Y-53414285D01*
X84534761Y-53366666D01*
X84582380Y-53271428D01*
X84582380Y-53080952D01*
X84534761Y-52985714D01*
X84487142Y-52938095D01*
X84391904Y-52890476D01*
X83582380Y-52890476D01*
X84582380Y-51890476D02*
X84582380Y-52461904D01*
X84582380Y-52176190D02*
X83582380Y-52176190D01*
X83725238Y-52271428D01*
X83820476Y-52366666D01*
X83868095Y-52461904D01*
X80737142Y-27486666D02*
X80784761Y-27534285D01*
X80832380Y-27677142D01*
X80832380Y-27772380D01*
X80784761Y-27915238D01*
X80689523Y-28010476D01*
X80594285Y-28058095D01*
X80403809Y-28105714D01*
X80260952Y-28105714D01*
X80070476Y-28058095D01*
X79975238Y-28010476D01*
X79880000Y-27915238D01*
X79832380Y-27772380D01*
X79832380Y-27677142D01*
X79880000Y-27534285D01*
X79927619Y-27486666D01*
X79832380Y-27153333D02*
X79832380Y-26534285D01*
X80213333Y-26867619D01*
X80213333Y-26724761D01*
X80260952Y-26629523D01*
X80308571Y-26581904D01*
X80403809Y-26534285D01*
X80641904Y-26534285D01*
X80737142Y-26581904D01*
X80784761Y-26629523D01*
X80832380Y-26724761D01*
X80832380Y-27010476D01*
X80784761Y-27105714D01*
X80737142Y-27153333D01*
X98332380Y-45822380D02*
X98903809Y-45822380D01*
X98618095Y-46822380D02*
X98618095Y-45822380D01*
X99237142Y-46822380D02*
X99237142Y-45822380D01*
X99665714Y-46822380D02*
X99665714Y-46298571D01*
X99618095Y-46203333D01*
X99522857Y-46155714D01*
X99380000Y-46155714D01*
X99284761Y-46203333D01*
X99237142Y-46250952D01*
X100522857Y-46774761D02*
X100427619Y-46822380D01*
X100237142Y-46822380D01*
X100141904Y-46774761D01*
X100094285Y-46679523D01*
X100094285Y-46298571D01*
X100141904Y-46203333D01*
X100237142Y-46155714D01*
X100427619Y-46155714D01*
X100522857Y-46203333D01*
X100570476Y-46298571D01*
X100570476Y-46393809D01*
X100094285Y-46489047D01*
X100999047Y-46822380D02*
X100999047Y-46155714D01*
X100999047Y-46346190D02*
X101046666Y-46250952D01*
X101094285Y-46203333D01*
X101189523Y-46155714D01*
X101284761Y-46155714D01*
X101618095Y-46822380D02*
X101618095Y-46155714D01*
X101618095Y-46250952D02*
X101665714Y-46203333D01*
X101760952Y-46155714D01*
X101903809Y-46155714D01*
X101999047Y-46203333D01*
X102046666Y-46298571D01*
X102046666Y-46822380D01*
X102046666Y-46298571D02*
X102094285Y-46203333D01*
X102189523Y-46155714D01*
X102332380Y-46155714D01*
X102427619Y-46203333D01*
X102475238Y-46298571D01*
X102475238Y-46822380D01*
X103094285Y-46822380D02*
X102999047Y-46774761D01*
X102951428Y-46727142D01*
X102903809Y-46631904D01*
X102903809Y-46346190D01*
X102951428Y-46250952D01*
X102999047Y-46203333D01*
X103094285Y-46155714D01*
X103237142Y-46155714D01*
X103332380Y-46203333D01*
X103380000Y-46250952D01*
X103427619Y-46346190D01*
X103427619Y-46631904D01*
X103380000Y-46727142D01*
X103332380Y-46774761D01*
X103237142Y-46822380D01*
X103094285Y-46822380D01*
X104284761Y-46774761D02*
X104189523Y-46822380D01*
X103999047Y-46822380D01*
X103903809Y-46774761D01*
X103856190Y-46727142D01*
X103808571Y-46631904D01*
X103808571Y-46346190D01*
X103856190Y-46250952D01*
X103903809Y-46203333D01*
X103999047Y-46155714D01*
X104189523Y-46155714D01*
X104284761Y-46203333D01*
X104856190Y-46822380D02*
X104760952Y-46774761D01*
X104713333Y-46727142D01*
X104665714Y-46631904D01*
X104665714Y-46346190D01*
X104713333Y-46250952D01*
X104760952Y-46203333D01*
X104856190Y-46155714D01*
X104999047Y-46155714D01*
X105094285Y-46203333D01*
X105141904Y-46250952D01*
X105189523Y-46346190D01*
X105189523Y-46631904D01*
X105141904Y-46727142D01*
X105094285Y-46774761D01*
X104999047Y-46822380D01*
X104856190Y-46822380D01*
X106046666Y-46155714D02*
X106046666Y-46822380D01*
X105618095Y-46155714D02*
X105618095Y-46679523D01*
X105665714Y-46774761D01*
X105760952Y-46822380D01*
X105903809Y-46822380D01*
X105999047Y-46774761D01*
X106046666Y-46727142D01*
X106522857Y-46155714D02*
X106522857Y-47155714D01*
X106522857Y-46203333D02*
X106618095Y-46155714D01*
X106808571Y-46155714D01*
X106903809Y-46203333D01*
X106951428Y-46250952D01*
X106999047Y-46346190D01*
X106999047Y-46631904D01*
X106951428Y-46727142D01*
X106903809Y-46774761D01*
X106808571Y-46822380D01*
X106618095Y-46822380D01*
X106522857Y-46774761D01*
X107570476Y-46822380D02*
X107475238Y-46774761D01*
X107427619Y-46679523D01*
X107427619Y-45822380D01*
X108332380Y-46774761D02*
X108237142Y-46822380D01*
X108046666Y-46822380D01*
X107951428Y-46774761D01*
X107903809Y-46679523D01*
X107903809Y-46298571D01*
X107951428Y-46203333D01*
X108046666Y-46155714D01*
X108237142Y-46155714D01*
X108332380Y-46203333D01*
X108380000Y-46298571D01*
X108380000Y-46393809D01*
X107903809Y-46489047D01*
X109332380Y-46822380D02*
X108760952Y-46822380D01*
X109046666Y-46822380D02*
X109046666Y-45822380D01*
X108951428Y-45965238D01*
X108856190Y-46060476D01*
X108760952Y-46108095D01*
D11*
X111912500Y-108560000D02*
X111912500Y-96180000D01*
X111912500Y-96180000D02*
X113712500Y-96180000D01*
X113712500Y-100580000D02*
X115212500Y-100830000D01*
X113712500Y-105660000D02*
X115212500Y-105910000D01*
X113712500Y-96180000D02*
X113712500Y-108560000D01*
X115212500Y-100830000D02*
X115212500Y-98830000D01*
X102992500Y-108560000D02*
X115212500Y-108560000D01*
X102992500Y-96180000D02*
X102992500Y-108560000D01*
X115212500Y-105910000D02*
X115212500Y-103910000D01*
X115212500Y-96180000D02*
X102992500Y-96180000D01*
X102192500Y-105210000D02*
X102192500Y-104610000D01*
X102792500Y-104910000D02*
X102192500Y-105210000D01*
X113712500Y-104160000D02*
X113712500Y-105660000D01*
X102192500Y-104610000D02*
X102792500Y-104910000D01*
X115212500Y-98830000D02*
X113712500Y-99080000D01*
X115212500Y-103910000D02*
X113712500Y-104160000D01*
X113712500Y-99080000D02*
X113712500Y-100580000D01*
X115212500Y-108560000D02*
X115212500Y-96180000D01*
X113712500Y-108560000D02*
X111912500Y-108560000D01*
D12*
X113113335Y-87286406D02*
X112818985Y-87286695D01*
X112818985Y-87286695D02*
X112717010Y-87287120D01*
X112717010Y-87287120D02*
X112636355Y-87288408D01*
X112636355Y-87288408D02*
X112571888Y-87290914D01*
X112571888Y-87290914D02*
X112518476Y-87294996D01*
X112518476Y-87294996D02*
X112470988Y-87301008D01*
X112470988Y-87301008D02*
X112424289Y-87309308D01*
X112424289Y-87309308D02*
X112390389Y-87316436D01*
X112390389Y-87316436D02*
X112160549Y-87379754D01*
X112160549Y-87379754D02*
X111941232Y-87466012D01*
X111941232Y-87466012D02*
X111734201Y-87574009D01*
X111734201Y-87574009D02*
X111541220Y-87702544D01*
X111541220Y-87702544D02*
X111364049Y-87850418D01*
X111364049Y-87850418D02*
X111204453Y-88016430D01*
X111204453Y-88016430D02*
X111064193Y-88199379D01*
X111064193Y-88199379D02*
X111039554Y-88236449D01*
X111039554Y-88236449D02*
X110987756Y-88323402D01*
X110987756Y-88323402D02*
X110934855Y-88424820D01*
X110934855Y-88424820D02*
X110883836Y-88533866D01*
X110883836Y-88533866D02*
X110837682Y-88643702D01*
X110837682Y-88643702D02*
X110799375Y-88747488D01*
X110799375Y-88747488D02*
X110771898Y-88838388D01*
X110771898Y-88838388D02*
X110765804Y-88863984D01*
X110765804Y-88863984D02*
X110756439Y-88906979D01*
X110756439Y-88906979D02*
X112518021Y-88906979D01*
X112518021Y-88906979D02*
X112518021Y-89846250D01*
X112518021Y-89846250D02*
X110756439Y-89846250D01*
X110756439Y-89846250D02*
X110765804Y-89889244D01*
X110765804Y-89889244D02*
X110790864Y-89980611D01*
X110790864Y-89980611D02*
X110828352Y-90086469D01*
X110828352Y-90086469D02*
X110875185Y-90199878D01*
X110875185Y-90199878D02*
X110928282Y-90313892D01*
X110928282Y-90313892D02*
X110984560Y-90421569D01*
X110984560Y-90421569D02*
X111040936Y-90515967D01*
X111040936Y-90515967D02*
X111050392Y-90530319D01*
X111050392Y-90530319D02*
X111194134Y-90721791D01*
X111194134Y-90721791D02*
X111355333Y-90893630D01*
X111355333Y-90893630D02*
X111532990Y-91045163D01*
X111532990Y-91045163D02*
X111726109Y-91175719D01*
X111726109Y-91175719D02*
X111933691Y-91284624D01*
X111933691Y-91284624D02*
X112154738Y-91371206D01*
X112154738Y-91371206D02*
X112388255Y-91434794D01*
X112388255Y-91434794D02*
X112393956Y-91436021D01*
X112393956Y-91436021D02*
X112446538Y-91446622D01*
X112446538Y-91446622D02*
X112494958Y-91454513D01*
X112494958Y-91454513D02*
X112544609Y-91460078D01*
X112544609Y-91460078D02*
X112600881Y-91463702D01*
X112600881Y-91463702D02*
X112669168Y-91465769D01*
X112669168Y-91465769D02*
X112754859Y-91466664D01*
X112754859Y-91466664D02*
X112825599Y-91466799D01*
X112825599Y-91466799D02*
X113113333Y-91466776D01*
X113113333Y-91466776D02*
X113113333Y-92399479D01*
X113113333Y-92399479D02*
X112825599Y-92397762D01*
X112825599Y-92397762D02*
X112733624Y-92396709D01*
X112733624Y-92396709D02*
X112643891Y-92394766D01*
X112643891Y-92394766D02*
X112562158Y-92392126D01*
X112562158Y-92392126D02*
X112494179Y-92388981D01*
X112494179Y-92388981D02*
X112445711Y-92385526D01*
X112445711Y-92385526D02*
X112438646Y-92384789D01*
X112438646Y-92384789D02*
X112213237Y-92348594D01*
X112213237Y-92348594D02*
X111981386Y-92291376D01*
X111981386Y-92291376D02*
X111749425Y-92215284D01*
X111749425Y-92215284D02*
X111523685Y-92122465D01*
X111523685Y-92122465D02*
X111310499Y-92015068D01*
X111310499Y-92015068D02*
X111254697Y-91983135D01*
X111254697Y-91983135D02*
X111091156Y-91877667D01*
X111091156Y-91877667D02*
X110925214Y-91753545D01*
X110925214Y-91753545D02*
X110763427Y-91616431D01*
X110763427Y-91616431D02*
X110612350Y-91471982D01*
X110612350Y-91471982D02*
X110478540Y-91325859D01*
X110478540Y-91325859D02*
X110441993Y-91281607D01*
X110441993Y-91281607D02*
X110280673Y-91060012D01*
X110280673Y-91060012D02*
X110139348Y-90822378D01*
X110139348Y-90822378D02*
X110019025Y-90571089D01*
X110019025Y-90571089D02*
X109920711Y-90308532D01*
X109920711Y-90308532D02*
X109845412Y-90037092D01*
X109845412Y-90037092D02*
X109794135Y-89759155D01*
X109794135Y-89759155D02*
X109791590Y-89740416D01*
X109791590Y-89740416D02*
X109784641Y-89668751D01*
X109784641Y-89668751D02*
X109779708Y-89578046D01*
X109779708Y-89578046D02*
X109776792Y-89474923D01*
X109776792Y-89474923D02*
X109775895Y-89366009D01*
X109775895Y-89366009D02*
X109777019Y-89257925D01*
X109777019Y-89257925D02*
X109780166Y-89157298D01*
X109780166Y-89157298D02*
X109785338Y-89070752D01*
X109785338Y-89070752D02*
X109791383Y-89012812D01*
X109791383Y-89012812D02*
X109843339Y-88727894D01*
X109843339Y-88727894D02*
X109918569Y-88452354D01*
X109918569Y-88452354D02*
X110016391Y-88187809D01*
X110016391Y-88187809D02*
X110136121Y-87935877D01*
X110136121Y-87935877D02*
X110277076Y-87698177D01*
X110277076Y-87698177D02*
X110438573Y-87476325D01*
X110438573Y-87476325D02*
X110441993Y-87472079D01*
X110441993Y-87472079D02*
X110622280Y-87269121D01*
X110622280Y-87269121D02*
X110821422Y-87082656D01*
X110821422Y-87082656D02*
X111036973Y-86914214D01*
X111036973Y-86914214D02*
X111266485Y-86765325D01*
X111266485Y-86765325D02*
X111507509Y-86637517D01*
X111507509Y-86637517D02*
X111757600Y-86532322D01*
X111757600Y-86532322D02*
X112014309Y-86451267D01*
X112014309Y-86451267D02*
X112114619Y-86426769D01*
X112114619Y-86426769D02*
X112238530Y-86400938D01*
X112238530Y-86400938D02*
X112353700Y-86381592D01*
X112353700Y-86381592D02*
X112467520Y-86367981D01*
X112467520Y-86367981D02*
X112587385Y-86359356D01*
X112587385Y-86359356D02*
X112720687Y-86354968D01*
X112720687Y-86354968D02*
X112832213Y-86354008D01*
X112832213Y-86354008D02*
X113113333Y-86353750D01*
X113113333Y-86353750D02*
X113113335Y-87286406D01*
X113113335Y-87286406D02*
X113113335Y-87286406D01*
G36*
X113113335Y-87286406D02*
G01*
X112818985Y-87286695D01*
X112717010Y-87287120D01*
X112636355Y-87288408D01*
X112571888Y-87290914D01*
X112518476Y-87294996D01*
X112470988Y-87301008D01*
X112424289Y-87309308D01*
X112390389Y-87316436D01*
X112160549Y-87379754D01*
X111941232Y-87466012D01*
X111734201Y-87574009D01*
X111541220Y-87702544D01*
X111364049Y-87850418D01*
X111204453Y-88016430D01*
X111064193Y-88199379D01*
X111039554Y-88236449D01*
X110987756Y-88323402D01*
X110934855Y-88424820D01*
X110883836Y-88533866D01*
X110837682Y-88643702D01*
X110799375Y-88747488D01*
X110771898Y-88838388D01*
X110765804Y-88863984D01*
X110756439Y-88906979D01*
X112518021Y-88906979D01*
X112518021Y-89846250D01*
X110756439Y-89846250D01*
X110765804Y-89889244D01*
X110790864Y-89980611D01*
X110828352Y-90086469D01*
X110875185Y-90199878D01*
X110928282Y-90313892D01*
X110984560Y-90421569D01*
X111040936Y-90515967D01*
X111050392Y-90530319D01*
X111194134Y-90721791D01*
X111355333Y-90893630D01*
X111532990Y-91045163D01*
X111726109Y-91175719D01*
X111933691Y-91284624D01*
X112154738Y-91371206D01*
X112388255Y-91434794D01*
X112393956Y-91436021D01*
X112446538Y-91446622D01*
X112494958Y-91454513D01*
X112544609Y-91460078D01*
X112600881Y-91463702D01*
X112669168Y-91465769D01*
X112754859Y-91466664D01*
X112825599Y-91466799D01*
X113113333Y-91466776D01*
X113113333Y-92399479D01*
X112825599Y-92397762D01*
X112733624Y-92396709D01*
X112643891Y-92394766D01*
X112562158Y-92392126D01*
X112494179Y-92388981D01*
X112445711Y-92385526D01*
X112438646Y-92384789D01*
X112213237Y-92348594D01*
X111981386Y-92291376D01*
X111749425Y-92215284D01*
X111523685Y-92122465D01*
X111310499Y-92015068D01*
X111254697Y-91983135D01*
X111091156Y-91877667D01*
X110925214Y-91753545D01*
X110763427Y-91616431D01*
X110612350Y-91471982D01*
X110478540Y-91325859D01*
X110441993Y-91281607D01*
X110280673Y-91060012D01*
X110139348Y-90822378D01*
X110019025Y-90571089D01*
X109920711Y-90308532D01*
X109845412Y-90037092D01*
X109794135Y-89759155D01*
X109791590Y-89740416D01*
X109784641Y-89668751D01*
X109779708Y-89578046D01*
X109776792Y-89474923D01*
X109775895Y-89366009D01*
X109777019Y-89257925D01*
X109780166Y-89157298D01*
X109785338Y-89070752D01*
X109791383Y-89012812D01*
X109843339Y-88727894D01*
X109918569Y-88452354D01*
X110016391Y-88187809D01*
X110136121Y-87935877D01*
X110277076Y-87698177D01*
X110438573Y-87476325D01*
X110441993Y-87472079D01*
X110622280Y-87269121D01*
X110821422Y-87082656D01*
X111036973Y-86914214D01*
X111266485Y-86765325D01*
X111507509Y-86637517D01*
X111757600Y-86532322D01*
X112014309Y-86451267D01*
X112114619Y-86426769D01*
X112238530Y-86400938D01*
X112353700Y-86381592D01*
X112467520Y-86367981D01*
X112587385Y-86359356D01*
X112720687Y-86354968D01*
X112832213Y-86354008D01*
X113113333Y-86353750D01*
X113113335Y-87286406D01*
G37*
X113113335Y-87286406D02*
X112818985Y-87286695D01*
X112717010Y-87287120D01*
X112636355Y-87288408D01*
X112571888Y-87290914D01*
X112518476Y-87294996D01*
X112470988Y-87301008D01*
X112424289Y-87309308D01*
X112390389Y-87316436D01*
X112160549Y-87379754D01*
X111941232Y-87466012D01*
X111734201Y-87574009D01*
X111541220Y-87702544D01*
X111364049Y-87850418D01*
X111204453Y-88016430D01*
X111064193Y-88199379D01*
X111039554Y-88236449D01*
X110987756Y-88323402D01*
X110934855Y-88424820D01*
X110883836Y-88533866D01*
X110837682Y-88643702D01*
X110799375Y-88747488D01*
X110771898Y-88838388D01*
X110765804Y-88863984D01*
X110756439Y-88906979D01*
X112518021Y-88906979D01*
X112518021Y-89846250D01*
X110756439Y-89846250D01*
X110765804Y-89889244D01*
X110790864Y-89980611D01*
X110828352Y-90086469D01*
X110875185Y-90199878D01*
X110928282Y-90313892D01*
X110984560Y-90421569D01*
X111040936Y-90515967D01*
X111050392Y-90530319D01*
X111194134Y-90721791D01*
X111355333Y-90893630D01*
X111532990Y-91045163D01*
X111726109Y-91175719D01*
X111933691Y-91284624D01*
X112154738Y-91371206D01*
X112388255Y-91434794D01*
X112393956Y-91436021D01*
X112446538Y-91446622D01*
X112494958Y-91454513D01*
X112544609Y-91460078D01*
X112600881Y-91463702D01*
X112669168Y-91465769D01*
X112754859Y-91466664D01*
X112825599Y-91466799D01*
X113113333Y-91466776D01*
X113113333Y-92399479D01*
X112825599Y-92397762D01*
X112733624Y-92396709D01*
X112643891Y-92394766D01*
X112562158Y-92392126D01*
X112494179Y-92388981D01*
X112445711Y-92385526D01*
X112438646Y-92384789D01*
X112213237Y-92348594D01*
X111981386Y-92291376D01*
X111749425Y-92215284D01*
X111523685Y-92122465D01*
X111310499Y-92015068D01*
X111254697Y-91983135D01*
X111091156Y-91877667D01*
X110925214Y-91753545D01*
X110763427Y-91616431D01*
X110612350Y-91471982D01*
X110478540Y-91325859D01*
X110441993Y-91281607D01*
X110280673Y-91060012D01*
X110139348Y-90822378D01*
X110019025Y-90571089D01*
X109920711Y-90308532D01*
X109845412Y-90037092D01*
X109794135Y-89759155D01*
X109791590Y-89740416D01*
X109784641Y-89668751D01*
X109779708Y-89578046D01*
X109776792Y-89474923D01*
X109775895Y-89366009D01*
X109777019Y-89257925D01*
X109780166Y-89157298D01*
X109785338Y-89070752D01*
X109791383Y-89012812D01*
X109843339Y-88727894D01*
X109918569Y-88452354D01*
X110016391Y-88187809D01*
X110136121Y-87935877D01*
X110277076Y-87698177D01*
X110438573Y-87476325D01*
X110441993Y-87472079D01*
X110622280Y-87269121D01*
X110821422Y-87082656D01*
X111036973Y-86914214D01*
X111266485Y-86765325D01*
X111507509Y-86637517D01*
X111757600Y-86532322D01*
X112014309Y-86451267D01*
X112114619Y-86426769D01*
X112238530Y-86400938D01*
X112353700Y-86381592D01*
X112467520Y-86367981D01*
X112587385Y-86359356D01*
X112720687Y-86354968D01*
X112832213Y-86354008D01*
X113113333Y-86353750D01*
X113113335Y-87286406D01*
X107819187Y-86354315D02*
X107883670Y-86355975D01*
X107883670Y-86355975D02*
X107930303Y-86358945D01*
X107930303Y-86358945D02*
X107950651Y-86362088D01*
X107950651Y-86362088D02*
X107980417Y-86370065D01*
X107980417Y-86370065D02*
X107980417Y-87290530D01*
X107980417Y-87290530D02*
X107770881Y-87283259D01*
X107770881Y-87283259D02*
X107561047Y-87283523D01*
X107561047Y-87283523D02*
X107366859Y-87300382D01*
X107366859Y-87300382D02*
X107182420Y-87335075D01*
X107182420Y-87335075D02*
X107001832Y-87388839D01*
X107001832Y-87388839D02*
X106819197Y-87462911D01*
X106819197Y-87462911D02*
X106743489Y-87498879D01*
X106743489Y-87498879D02*
X106562938Y-87597977D01*
X106562938Y-87597977D02*
X106400298Y-87709326D01*
X106400298Y-87709326D02*
X106247901Y-87838408D01*
X106247901Y-87838408D02*
X106188622Y-87895705D01*
X106188622Y-87895705D02*
X106031985Y-88070861D01*
X106031985Y-88070861D02*
X105896473Y-88261520D01*
X105896473Y-88261520D02*
X105782766Y-88466394D01*
X105782766Y-88466394D02*
X105691544Y-88684193D01*
X105691544Y-88684193D02*
X105623485Y-88913629D01*
X105623485Y-88913629D02*
X105603326Y-89006197D01*
X105603326Y-89006197D02*
X105591177Y-89090244D01*
X105591177Y-89090244D02*
X105583066Y-89193234D01*
X105583066Y-89193234D02*
X105578985Y-89307965D01*
X105578985Y-89307965D02*
X105578926Y-89427234D01*
X105578926Y-89427234D02*
X105582884Y-89543837D01*
X105582884Y-89543837D02*
X105590851Y-89650571D01*
X105590851Y-89650571D02*
X105602819Y-89740233D01*
X105602819Y-89740233D02*
X105604057Y-89747031D01*
X105604057Y-89747031D02*
X105659911Y-89975759D01*
X105659911Y-89975759D02*
X105739299Y-90193965D01*
X105739299Y-90193965D02*
X105840931Y-90400177D01*
X105840931Y-90400177D02*
X105963522Y-90592928D01*
X105963522Y-90592928D02*
X106105781Y-90770748D01*
X106105781Y-90770748D02*
X106266421Y-90932168D01*
X106266421Y-90932168D02*
X106444155Y-91075719D01*
X106444155Y-91075719D02*
X106637693Y-91199931D01*
X106637693Y-91199931D02*
X106845748Y-91303336D01*
X106845748Y-91303336D02*
X107029237Y-91372535D01*
X107029237Y-91372535D02*
X107132377Y-91404118D01*
X107132377Y-91404118D02*
X107227107Y-91428129D01*
X107227107Y-91428129D02*
X107319870Y-91445463D01*
X107319870Y-91445463D02*
X107417106Y-91457016D01*
X107417106Y-91457016D02*
X107525258Y-91463680D01*
X107525258Y-91463680D02*
X107650767Y-91466352D01*
X107650767Y-91466352D02*
X107705911Y-91466504D01*
X107705911Y-91466504D02*
X107980417Y-91466186D01*
X107980417Y-91466186D02*
X107980417Y-92383164D01*
X107980417Y-92383164D02*
X107950651Y-92391141D01*
X107950651Y-92391141D02*
X107925251Y-92394138D01*
X107925251Y-92394138D02*
X107878256Y-92396203D01*
X107878256Y-92396203D02*
X107814510Y-92397382D01*
X107814510Y-92397382D02*
X107738858Y-92397723D01*
X107738858Y-92397723D02*
X107656146Y-92397274D01*
X107656146Y-92397274D02*
X107571217Y-92396083D01*
X107571217Y-92396083D02*
X107488917Y-92394197D01*
X107488917Y-92394197D02*
X107414091Y-92391663D01*
X107414091Y-92391663D02*
X107351583Y-92388531D01*
X107351583Y-92388531D02*
X107306238Y-92384847D01*
X107306238Y-92384847D02*
X107305729Y-92384789D01*
X107305729Y-92384789D02*
X107192729Y-92368341D01*
X107192729Y-92368341D02*
X107065128Y-92343706D01*
X107065128Y-92343706D02*
X106932662Y-92313083D01*
X106932662Y-92313083D02*
X106805066Y-92278667D01*
X106805066Y-92278667D02*
X106723984Y-92253536D01*
X106723984Y-92253536D02*
X106459447Y-92152498D01*
X106459447Y-92152498D02*
X106208723Y-92029513D01*
X106208723Y-92029513D02*
X105972805Y-91885777D01*
X105972805Y-91885777D02*
X105752680Y-91722487D01*
X105752680Y-91722487D02*
X105549340Y-91540838D01*
X105549340Y-91540838D02*
X105363773Y-91342026D01*
X105363773Y-91342026D02*
X105196970Y-91127247D01*
X105196970Y-91127247D02*
X105049921Y-90897698D01*
X105049921Y-90897698D02*
X104923615Y-90654573D01*
X104923615Y-90654573D02*
X104819042Y-90399070D01*
X104819042Y-90399070D02*
X104737192Y-90132383D01*
X104737192Y-90132383D02*
X104679055Y-89855709D01*
X104679055Y-89855709D02*
X104665838Y-89766875D01*
X104665838Y-89766875D02*
X104657382Y-89682107D01*
X104657382Y-89682107D02*
X104651563Y-89578118D01*
X104651563Y-89578118D02*
X104648382Y-89462009D01*
X104648382Y-89462009D02*
X104647839Y-89340887D01*
X104647839Y-89340887D02*
X104649934Y-89221854D01*
X104649934Y-89221854D02*
X104654666Y-89112014D01*
X104654666Y-89112014D02*
X104662037Y-89018472D01*
X104662037Y-89018472D02*
X104665838Y-88986354D01*
X104665838Y-88986354D02*
X104716759Y-88703706D01*
X104716759Y-88703706D02*
X104792205Y-88430614D01*
X104792205Y-88430614D02*
X104891919Y-88167714D01*
X104891919Y-88167714D02*
X105015646Y-87915637D01*
X105015646Y-87915637D02*
X105163128Y-87675017D01*
X105163128Y-87675017D02*
X105241952Y-87564218D01*
X105241952Y-87564218D02*
X105420230Y-87346723D01*
X105420230Y-87346723D02*
X105616233Y-87148344D01*
X105616233Y-87148344D02*
X105828598Y-86969882D01*
X105828598Y-86969882D02*
X106055959Y-86812133D01*
X106055959Y-86812133D02*
X106296953Y-86675897D01*
X106296953Y-86675897D02*
X106550213Y-86561971D01*
X106550213Y-86561971D02*
X106814377Y-86471153D01*
X106814377Y-86471153D02*
X107088079Y-86404241D01*
X107088079Y-86404241D02*
X107278880Y-86372813D01*
X107278880Y-86372813D02*
X107331354Y-86367490D01*
X107331354Y-86367490D02*
X107400218Y-86362930D01*
X107400218Y-86362930D02*
X107480581Y-86359212D01*
X107480581Y-86359212D02*
X107567550Y-86356413D01*
X107567550Y-86356413D02*
X107656236Y-86354612D01*
X107656236Y-86354612D02*
X107741745Y-86353887D01*
X107741745Y-86353887D02*
X107819187Y-86354315D01*
X107819187Y-86354315D02*
X107819187Y-86354315D01*
G36*
X107819187Y-86354315D02*
G01*
X107883670Y-86355975D01*
X107930303Y-86358945D01*
X107950651Y-86362088D01*
X107980417Y-86370065D01*
X107980417Y-87290530D01*
X107770881Y-87283259D01*
X107561047Y-87283523D01*
X107366859Y-87300382D01*
X107182420Y-87335075D01*
X107001832Y-87388839D01*
X106819197Y-87462911D01*
X106743489Y-87498879D01*
X106562938Y-87597977D01*
X106400298Y-87709326D01*
X106247901Y-87838408D01*
X106188622Y-87895705D01*
X106031985Y-88070861D01*
X105896473Y-88261520D01*
X105782766Y-88466394D01*
X105691544Y-88684193D01*
X105623485Y-88913629D01*
X105603326Y-89006197D01*
X105591177Y-89090244D01*
X105583066Y-89193234D01*
X105578985Y-89307965D01*
X105578926Y-89427234D01*
X105582884Y-89543837D01*
X105590851Y-89650571D01*
X105602819Y-89740233D01*
X105604057Y-89747031D01*
X105659911Y-89975759D01*
X105739299Y-90193965D01*
X105840931Y-90400177D01*
X105963522Y-90592928D01*
X106105781Y-90770748D01*
X106266421Y-90932168D01*
X106444155Y-91075719D01*
X106637693Y-91199931D01*
X106845748Y-91303336D01*
X107029237Y-91372535D01*
X107132377Y-91404118D01*
X107227107Y-91428129D01*
X107319870Y-91445463D01*
X107417106Y-91457016D01*
X107525258Y-91463680D01*
X107650767Y-91466352D01*
X107705911Y-91466504D01*
X107980417Y-91466186D01*
X107980417Y-92383164D01*
X107950651Y-92391141D01*
X107925251Y-92394138D01*
X107878256Y-92396203D01*
X107814510Y-92397382D01*
X107738858Y-92397723D01*
X107656146Y-92397274D01*
X107571217Y-92396083D01*
X107488917Y-92394197D01*
X107414091Y-92391663D01*
X107351583Y-92388531D01*
X107306238Y-92384847D01*
X107305729Y-92384789D01*
X107192729Y-92368341D01*
X107065128Y-92343706D01*
X106932662Y-92313083D01*
X106805066Y-92278667D01*
X106723984Y-92253536D01*
X106459447Y-92152498D01*
X106208723Y-92029513D01*
X105972805Y-91885777D01*
X105752680Y-91722487D01*
X105549340Y-91540838D01*
X105363773Y-91342026D01*
X105196970Y-91127247D01*
X105049921Y-90897698D01*
X104923615Y-90654573D01*
X104819042Y-90399070D01*
X104737192Y-90132383D01*
X104679055Y-89855709D01*
X104665838Y-89766875D01*
X104657382Y-89682107D01*
X104651563Y-89578118D01*
X104648382Y-89462009D01*
X104647839Y-89340887D01*
X104649934Y-89221854D01*
X104654666Y-89112014D01*
X104662037Y-89018472D01*
X104665838Y-88986354D01*
X104716759Y-88703706D01*
X104792205Y-88430614D01*
X104891919Y-88167714D01*
X105015646Y-87915637D01*
X105163128Y-87675017D01*
X105241952Y-87564218D01*
X105420230Y-87346723D01*
X105616233Y-87148344D01*
X105828598Y-86969882D01*
X106055959Y-86812133D01*
X106296953Y-86675897D01*
X106550213Y-86561971D01*
X106814377Y-86471153D01*
X107088079Y-86404241D01*
X107278880Y-86372813D01*
X107331354Y-86367490D01*
X107400218Y-86362930D01*
X107480581Y-86359212D01*
X107567550Y-86356413D01*
X107656236Y-86354612D01*
X107741745Y-86353887D01*
X107819187Y-86354315D01*
G37*
X107819187Y-86354315D02*
X107883670Y-86355975D01*
X107930303Y-86358945D01*
X107950651Y-86362088D01*
X107980417Y-86370065D01*
X107980417Y-87290530D01*
X107770881Y-87283259D01*
X107561047Y-87283523D01*
X107366859Y-87300382D01*
X107182420Y-87335075D01*
X107001832Y-87388839D01*
X106819197Y-87462911D01*
X106743489Y-87498879D01*
X106562938Y-87597977D01*
X106400298Y-87709326D01*
X106247901Y-87838408D01*
X106188622Y-87895705D01*
X106031985Y-88070861D01*
X105896473Y-88261520D01*
X105782766Y-88466394D01*
X105691544Y-88684193D01*
X105623485Y-88913629D01*
X105603326Y-89006197D01*
X105591177Y-89090244D01*
X105583066Y-89193234D01*
X105578985Y-89307965D01*
X105578926Y-89427234D01*
X105582884Y-89543837D01*
X105590851Y-89650571D01*
X105602819Y-89740233D01*
X105604057Y-89747031D01*
X105659911Y-89975759D01*
X105739299Y-90193965D01*
X105840931Y-90400177D01*
X105963522Y-90592928D01*
X106105781Y-90770748D01*
X106266421Y-90932168D01*
X106444155Y-91075719D01*
X106637693Y-91199931D01*
X106845748Y-91303336D01*
X107029237Y-91372535D01*
X107132377Y-91404118D01*
X107227107Y-91428129D01*
X107319870Y-91445463D01*
X107417106Y-91457016D01*
X107525258Y-91463680D01*
X107650767Y-91466352D01*
X107705911Y-91466504D01*
X107980417Y-91466186D01*
X107980417Y-92383164D01*
X107950651Y-92391141D01*
X107925251Y-92394138D01*
X107878256Y-92396203D01*
X107814510Y-92397382D01*
X107738858Y-92397723D01*
X107656146Y-92397274D01*
X107571217Y-92396083D01*
X107488917Y-92394197D01*
X107414091Y-92391663D01*
X107351583Y-92388531D01*
X107306238Y-92384847D01*
X107305729Y-92384789D01*
X107192729Y-92368341D01*
X107065128Y-92343706D01*
X106932662Y-92313083D01*
X106805066Y-92278667D01*
X106723984Y-92253536D01*
X106459447Y-92152498D01*
X106208723Y-92029513D01*
X105972805Y-91885777D01*
X105752680Y-91722487D01*
X105549340Y-91540838D01*
X105363773Y-91342026D01*
X105196970Y-91127247D01*
X105049921Y-90897698D01*
X104923615Y-90654573D01*
X104819042Y-90399070D01*
X104737192Y-90132383D01*
X104679055Y-89855709D01*
X104665838Y-89766875D01*
X104657382Y-89682107D01*
X104651563Y-89578118D01*
X104648382Y-89462009D01*
X104647839Y-89340887D01*
X104649934Y-89221854D01*
X104654666Y-89112014D01*
X104662037Y-89018472D01*
X104665838Y-88986354D01*
X104716759Y-88703706D01*
X104792205Y-88430614D01*
X104891919Y-88167714D01*
X105015646Y-87915637D01*
X105163128Y-87675017D01*
X105241952Y-87564218D01*
X105420230Y-87346723D01*
X105616233Y-87148344D01*
X105828598Y-86969882D01*
X106055959Y-86812133D01*
X106296953Y-86675897D01*
X106550213Y-86561971D01*
X106814377Y-86471153D01*
X107088079Y-86404241D01*
X107278880Y-86372813D01*
X107331354Y-86367490D01*
X107400218Y-86362930D01*
X107480581Y-86359212D01*
X107567550Y-86356413D01*
X107656236Y-86354612D01*
X107741745Y-86353887D01*
X107819187Y-86354315D01*
D11*
X108630000Y-56720000D02*
X107480000Y-56720000D01*
X108630000Y-64020000D02*
X108630000Y-56720000D01*
X103130000Y-64020000D02*
X103130000Y-56720000D01*
X83615000Y-50081252D02*
X83615000Y-49558748D01*
X82145000Y-50081252D02*
X82145000Y-49558748D01*
X106115000Y-37047064D02*
X106115000Y-36592936D01*
X104645000Y-37047064D02*
X104645000Y-36592936D01*
X78615000Y-32058748D02*
X78615000Y-32581252D01*
X77145000Y-32058748D02*
X77145000Y-32581252D01*
X82145000Y-46081252D02*
X82145000Y-45558748D01*
X83615000Y-46081252D02*
X83615000Y-45558748D01*
X94895000Y-49931252D02*
X94895000Y-49408748D01*
X96365000Y-49931252D02*
X96365000Y-49408748D01*
X68830000Y-65327500D02*
X94430000Y-65327500D01*
X79130000Y-111527500D02*
X81130000Y-111527500D01*
X94430000Y-111227500D02*
X94430000Y-65327500D01*
X68830000Y-111227500D02*
X94430000Y-111227500D01*
X68830000Y-111227500D02*
X68830000Y-65327500D01*
X103050000Y-23465000D02*
X104380000Y-23465000D01*
X103050000Y-24795000D02*
X103050000Y-23465000D01*
X103050000Y-26065000D02*
X103050000Y-31205000D01*
X105710000Y-26065000D02*
X105710000Y-31205000D01*
X103050000Y-26065000D02*
X105710000Y-26065000D01*
X103050000Y-31205000D02*
X105710000Y-31205000D01*
X77145000Y-24058748D02*
X77145000Y-24581252D01*
X78615000Y-24058748D02*
X78615000Y-24581252D01*
X81115000Y-45592936D02*
X81115000Y-46047064D01*
X79645000Y-45592936D02*
X79645000Y-46047064D01*
X98865000Y-49931252D02*
X98865000Y-49408748D01*
X97395000Y-49931252D02*
X97395000Y-49408748D01*
X103615000Y-40831252D02*
X103615000Y-40308748D01*
X102145000Y-40831252D02*
X102145000Y-40308748D01*
X104645000Y-40797064D02*
X104645000Y-40342936D01*
X106115000Y-40797064D02*
X106115000Y-40342936D01*
X75030000Y-36260000D02*
X78730000Y-36260000D01*
X75030000Y-42380000D02*
X75030000Y-36260000D01*
X78730000Y-36260000D02*
X78730000Y-42380000D01*
X78730000Y-42380000D02*
X75030000Y-42380000D01*
X93120000Y-49810580D02*
X93120000Y-49529420D01*
X94140000Y-49810580D02*
X94140000Y-49529420D01*
X78730000Y-46760000D02*
X78730000Y-52880000D01*
X78730000Y-52880000D02*
X75030000Y-52880000D01*
X75030000Y-46760000D02*
X78730000Y-46760000D01*
X75030000Y-52880000D02*
X75030000Y-46760000D01*
X81115000Y-32058748D02*
X81115000Y-32581252D01*
X79645000Y-32058748D02*
X79645000Y-32581252D01*
X79645000Y-49558748D02*
X79645000Y-50081252D01*
X81115000Y-49558748D02*
X81115000Y-50081252D01*
X81115000Y-39547064D02*
X81115000Y-39092936D01*
X79645000Y-39547064D02*
X79645000Y-39092936D01*
X103615000Y-37047064D02*
X103615000Y-36592936D01*
X102145000Y-37047064D02*
X102145000Y-36592936D01*
X82760000Y-15955000D02*
X82760000Y-22375000D01*
X82760000Y-15955000D02*
X101000000Y-15955000D01*
X82760000Y-40920000D02*
X82760000Y-41700000D01*
X101000000Y-40920000D02*
X101000000Y-41700000D01*
X101000000Y-41700000D02*
X100000000Y-41700000D01*
X82760000Y-22375000D02*
X82380000Y-22375000D01*
X82760000Y-41700000D02*
X83760000Y-41700000D01*
X101000000Y-15955000D02*
X101000000Y-22375000D01*
X92040000Y-54580000D02*
X90780000Y-54580000D01*
X85220000Y-54580000D02*
X86480000Y-54580000D01*
X92040000Y-48570000D02*
X92040000Y-54580000D01*
X85220000Y-50820000D02*
X85220000Y-54580000D01*
X81115000Y-24581252D02*
X81115000Y-24058748D01*
X79645000Y-24581252D02*
X79645000Y-24058748D01*
X97795000Y-46950000D02*
X97795000Y-44290000D01*
X87575000Y-44290000D02*
X97795000Y-44290000D01*
X87575000Y-46950000D02*
X97795000Y-46950000D01*
X84975000Y-46950000D02*
X84975000Y-45620000D01*
X86305000Y-46950000D02*
X84975000Y-46950000D01*
X87575000Y-46950000D02*
X87575000Y-44290000D01*
M02*
