G04 #@! TF.GenerationSoftware,KiCad,Pcbnew,(6.0.2)*
G04 #@! TF.CreationDate,2022-03-16T21:20:06+00:00*
G04 #@! TF.ProjectId,MrReflow,4d725265-666c-46f7-972e-6b696361645f,rev?*
G04 #@! TF.SameCoordinates,Original*
G04 #@! TF.FileFunction,Legend,Bot*
G04 #@! TF.FilePolarity,Positive*
%FSLAX46Y46*%
G04 Gerber Fmt 4.6, Leading zero omitted, Abs format (unit mm)*
G04 Created by KiCad (PCBNEW (6.0.2)) date 2022-03-16 21:20:06*
%MOMM*%
%LPD*%
G01*
G04 APERTURE LIST*
%ADD10C,0.150000*%
%ADD11C,0.010000*%
%ADD12C,0.120000*%
G04 APERTURE END LIST*
D10*
X117927619Y-77274761D02*
X117927619Y-75274761D01*
X117260952Y-76703333D01*
X116594285Y-75274761D01*
X116594285Y-77274761D01*
X115641904Y-77274761D02*
X115641904Y-75941428D01*
X115641904Y-76322380D02*
X115546666Y-76131904D01*
X115451428Y-76036666D01*
X115260952Y-75941428D01*
X115070476Y-75941428D01*
X113260952Y-77274761D02*
X113927619Y-76322380D01*
X114403809Y-77274761D02*
X114403809Y-75274761D01*
X113641904Y-75274761D01*
X113451428Y-75370000D01*
X113356190Y-75465238D01*
X113260952Y-75655714D01*
X113260952Y-75941428D01*
X113356190Y-76131904D01*
X113451428Y-76227142D01*
X113641904Y-76322380D01*
X114403809Y-76322380D01*
X111641904Y-77179523D02*
X111832380Y-77274761D01*
X112213333Y-77274761D01*
X112403809Y-77179523D01*
X112499047Y-76989047D01*
X112499047Y-76227142D01*
X112403809Y-76036666D01*
X112213333Y-75941428D01*
X111832380Y-75941428D01*
X111641904Y-76036666D01*
X111546666Y-76227142D01*
X111546666Y-76417619D01*
X112499047Y-76608095D01*
X110975238Y-75941428D02*
X110213333Y-75941428D01*
X110689523Y-77274761D02*
X110689523Y-75560476D01*
X110594285Y-75370000D01*
X110403809Y-75274761D01*
X110213333Y-75274761D01*
X109260952Y-77274761D02*
X109451428Y-77179523D01*
X109546666Y-76989047D01*
X109546666Y-75274761D01*
X108213333Y-77274761D02*
X108403809Y-77179523D01*
X108499047Y-77084285D01*
X108594285Y-76893809D01*
X108594285Y-76322380D01*
X108499047Y-76131904D01*
X108403809Y-76036666D01*
X108213333Y-75941428D01*
X107927619Y-75941428D01*
X107737142Y-76036666D01*
X107641904Y-76131904D01*
X107546666Y-76322380D01*
X107546666Y-76893809D01*
X107641904Y-77084285D01*
X107737142Y-77179523D01*
X107927619Y-77274761D01*
X108213333Y-77274761D01*
X106880000Y-75941428D02*
X106499047Y-77274761D01*
X106118095Y-76322380D01*
X105737142Y-77274761D01*
X105356190Y-75941428D01*
X103070476Y-77274761D02*
X103070476Y-75274761D01*
X102403809Y-76703333D01*
X101737142Y-75274761D01*
X101737142Y-77274761D01*
X100784761Y-77274761D02*
X100784761Y-75274761D01*
X99641904Y-77274761D02*
X100499047Y-76131904D01*
X99641904Y-75274761D02*
X100784761Y-76417619D01*
X98784761Y-77274761D02*
X98784761Y-75274761D01*
X97832380Y-77274761D02*
X97832380Y-75274761D01*
X96212380Y-57441428D02*
X95212380Y-57441428D01*
X95212380Y-57679523D01*
X95260000Y-57822380D01*
X95355238Y-57917619D01*
X95450476Y-57965238D01*
X95640952Y-58012857D01*
X95783809Y-58012857D01*
X95974285Y-57965238D01*
X96069523Y-57917619D01*
X96164761Y-57822380D01*
X96212380Y-57679523D01*
X96212380Y-57441428D01*
X96212380Y-58441428D02*
X95545714Y-58441428D01*
X95212380Y-58441428D02*
X95260000Y-58393809D01*
X95307619Y-58441428D01*
X95260000Y-58489047D01*
X95212380Y-58441428D01*
X95307619Y-58441428D01*
X96164761Y-58870000D02*
X96212380Y-58965238D01*
X96212380Y-59155714D01*
X96164761Y-59250952D01*
X96069523Y-59298571D01*
X96021904Y-59298571D01*
X95926666Y-59250952D01*
X95879047Y-59155714D01*
X95879047Y-59012857D01*
X95831428Y-58917619D01*
X95736190Y-58870000D01*
X95688571Y-58870000D01*
X95593333Y-58917619D01*
X95545714Y-59012857D01*
X95545714Y-59155714D01*
X95593333Y-59250952D01*
X95545714Y-59727142D02*
X96545714Y-59727142D01*
X95593333Y-59727142D02*
X95545714Y-59822380D01*
X95545714Y-60012857D01*
X95593333Y-60108095D01*
X95640952Y-60155714D01*
X95736190Y-60203333D01*
X96021904Y-60203333D01*
X96117142Y-60155714D01*
X96164761Y-60108095D01*
X96212380Y-60012857D01*
X96212380Y-59822380D01*
X96164761Y-59727142D01*
X96212380Y-60774761D02*
X96164761Y-60679523D01*
X96069523Y-60631904D01*
X95212380Y-60631904D01*
X96212380Y-61584285D02*
X95688571Y-61584285D01*
X95593333Y-61536666D01*
X95545714Y-61441428D01*
X95545714Y-61250952D01*
X95593333Y-61155714D01*
X96164761Y-61584285D02*
X96212380Y-61489047D01*
X96212380Y-61250952D01*
X96164761Y-61155714D01*
X96069523Y-61108095D01*
X95974285Y-61108095D01*
X95879047Y-61155714D01*
X95831428Y-61250952D01*
X95831428Y-61489047D01*
X95783809Y-61584285D01*
X95545714Y-61965238D02*
X96212380Y-62203333D01*
X95545714Y-62441428D02*
X96212380Y-62203333D01*
X96450476Y-62108095D01*
X96498095Y-62060476D01*
X96545714Y-61965238D01*
X96212380Y-63346190D02*
X96212380Y-62774761D01*
X96212380Y-63060476D02*
X95212380Y-63060476D01*
X95355238Y-62965238D01*
X95450476Y-62870000D01*
X95498095Y-62774761D01*
D11*
X105646665Y-87286406D02*
X105941015Y-87286695D01*
X105941015Y-87286695D02*
X106042990Y-87287120D01*
X106042990Y-87287120D02*
X106123645Y-87288408D01*
X106123645Y-87288408D02*
X106188112Y-87290914D01*
X106188112Y-87290914D02*
X106241524Y-87294996D01*
X106241524Y-87294996D02*
X106289012Y-87301008D01*
X106289012Y-87301008D02*
X106335711Y-87309308D01*
X106335711Y-87309308D02*
X106369611Y-87316436D01*
X106369611Y-87316436D02*
X106599451Y-87379754D01*
X106599451Y-87379754D02*
X106818768Y-87466012D01*
X106818768Y-87466012D02*
X107025799Y-87574009D01*
X107025799Y-87574009D02*
X107218780Y-87702544D01*
X107218780Y-87702544D02*
X107395951Y-87850418D01*
X107395951Y-87850418D02*
X107555547Y-88016430D01*
X107555547Y-88016430D02*
X107695807Y-88199379D01*
X107695807Y-88199379D02*
X107720446Y-88236449D01*
X107720446Y-88236449D02*
X107772244Y-88323402D01*
X107772244Y-88323402D02*
X107825145Y-88424820D01*
X107825145Y-88424820D02*
X107876164Y-88533866D01*
X107876164Y-88533866D02*
X107922318Y-88643702D01*
X107922318Y-88643702D02*
X107960625Y-88747488D01*
X107960625Y-88747488D02*
X107988102Y-88838388D01*
X107988102Y-88838388D02*
X107994196Y-88863984D01*
X107994196Y-88863984D02*
X108003561Y-88906979D01*
X108003561Y-88906979D02*
X106241979Y-88906979D01*
X106241979Y-88906979D02*
X106241979Y-89846250D01*
X106241979Y-89846250D02*
X108003561Y-89846250D01*
X108003561Y-89846250D02*
X107994196Y-89889244D01*
X107994196Y-89889244D02*
X107969136Y-89980611D01*
X107969136Y-89980611D02*
X107931648Y-90086469D01*
X107931648Y-90086469D02*
X107884815Y-90199878D01*
X107884815Y-90199878D02*
X107831718Y-90313892D01*
X107831718Y-90313892D02*
X107775440Y-90421569D01*
X107775440Y-90421569D02*
X107719064Y-90515967D01*
X107719064Y-90515967D02*
X107709608Y-90530319D01*
X107709608Y-90530319D02*
X107565866Y-90721791D01*
X107565866Y-90721791D02*
X107404667Y-90893630D01*
X107404667Y-90893630D02*
X107227010Y-91045163D01*
X107227010Y-91045163D02*
X107033891Y-91175719D01*
X107033891Y-91175719D02*
X106826309Y-91284624D01*
X106826309Y-91284624D02*
X106605262Y-91371206D01*
X106605262Y-91371206D02*
X106371745Y-91434794D01*
X106371745Y-91434794D02*
X106366044Y-91436021D01*
X106366044Y-91436021D02*
X106313462Y-91446622D01*
X106313462Y-91446622D02*
X106265042Y-91454513D01*
X106265042Y-91454513D02*
X106215391Y-91460078D01*
X106215391Y-91460078D02*
X106159119Y-91463702D01*
X106159119Y-91463702D02*
X106090832Y-91465769D01*
X106090832Y-91465769D02*
X106005141Y-91466664D01*
X106005141Y-91466664D02*
X105934401Y-91466799D01*
X105934401Y-91466799D02*
X105646667Y-91466776D01*
X105646667Y-91466776D02*
X105646667Y-92399479D01*
X105646667Y-92399479D02*
X105934401Y-92397762D01*
X105934401Y-92397762D02*
X106026376Y-92396709D01*
X106026376Y-92396709D02*
X106116109Y-92394766D01*
X106116109Y-92394766D02*
X106197842Y-92392126D01*
X106197842Y-92392126D02*
X106265821Y-92388981D01*
X106265821Y-92388981D02*
X106314289Y-92385526D01*
X106314289Y-92385526D02*
X106321354Y-92384789D01*
X106321354Y-92384789D02*
X106546763Y-92348594D01*
X106546763Y-92348594D02*
X106778614Y-92291376D01*
X106778614Y-92291376D02*
X107010575Y-92215284D01*
X107010575Y-92215284D02*
X107236315Y-92122465D01*
X107236315Y-92122465D02*
X107449501Y-92015068D01*
X107449501Y-92015068D02*
X107505303Y-91983135D01*
X107505303Y-91983135D02*
X107668844Y-91877667D01*
X107668844Y-91877667D02*
X107834786Y-91753545D01*
X107834786Y-91753545D02*
X107996573Y-91616431D01*
X107996573Y-91616431D02*
X108147650Y-91471982D01*
X108147650Y-91471982D02*
X108281460Y-91325859D01*
X108281460Y-91325859D02*
X108318007Y-91281607D01*
X108318007Y-91281607D02*
X108479327Y-91060012D01*
X108479327Y-91060012D02*
X108620652Y-90822378D01*
X108620652Y-90822378D02*
X108740975Y-90571089D01*
X108740975Y-90571089D02*
X108839289Y-90308532D01*
X108839289Y-90308532D02*
X108914588Y-90037092D01*
X108914588Y-90037092D02*
X108965865Y-89759155D01*
X108965865Y-89759155D02*
X108968410Y-89740416D01*
X108968410Y-89740416D02*
X108975359Y-89668751D01*
X108975359Y-89668751D02*
X108980292Y-89578046D01*
X108980292Y-89578046D02*
X108983208Y-89474923D01*
X108983208Y-89474923D02*
X108984105Y-89366009D01*
X108984105Y-89366009D02*
X108982981Y-89257925D01*
X108982981Y-89257925D02*
X108979834Y-89157298D01*
X108979834Y-89157298D02*
X108974662Y-89070752D01*
X108974662Y-89070752D02*
X108968617Y-89012812D01*
X108968617Y-89012812D02*
X108916661Y-88727894D01*
X108916661Y-88727894D02*
X108841431Y-88452354D01*
X108841431Y-88452354D02*
X108743609Y-88187809D01*
X108743609Y-88187809D02*
X108623879Y-87935877D01*
X108623879Y-87935877D02*
X108482924Y-87698177D01*
X108482924Y-87698177D02*
X108321427Y-87476325D01*
X108321427Y-87476325D02*
X108318007Y-87472079D01*
X108318007Y-87472079D02*
X108137720Y-87269121D01*
X108137720Y-87269121D02*
X107938578Y-87082656D01*
X107938578Y-87082656D02*
X107723027Y-86914214D01*
X107723027Y-86914214D02*
X107493515Y-86765325D01*
X107493515Y-86765325D02*
X107252491Y-86637517D01*
X107252491Y-86637517D02*
X107002400Y-86532322D01*
X107002400Y-86532322D02*
X106745691Y-86451267D01*
X106745691Y-86451267D02*
X106645381Y-86426769D01*
X106645381Y-86426769D02*
X106521470Y-86400938D01*
X106521470Y-86400938D02*
X106406300Y-86381592D01*
X106406300Y-86381592D02*
X106292480Y-86367981D01*
X106292480Y-86367981D02*
X106172615Y-86359356D01*
X106172615Y-86359356D02*
X106039313Y-86354968D01*
X106039313Y-86354968D02*
X105927787Y-86354008D01*
X105927787Y-86354008D02*
X105646667Y-86353750D01*
X105646667Y-86353750D02*
X105646665Y-87286406D01*
X105646665Y-87286406D02*
X105646665Y-87286406D01*
G36*
X105927787Y-86354008D02*
G01*
X106039313Y-86354968D01*
X106172615Y-86359356D01*
X106292480Y-86367981D01*
X106406300Y-86381592D01*
X106521470Y-86400938D01*
X106645381Y-86426769D01*
X106745691Y-86451267D01*
X107002400Y-86532322D01*
X107252491Y-86637517D01*
X107493515Y-86765325D01*
X107723027Y-86914214D01*
X107938578Y-87082656D01*
X108137720Y-87269121D01*
X108318007Y-87472079D01*
X108321427Y-87476325D01*
X108482924Y-87698177D01*
X108623879Y-87935877D01*
X108743609Y-88187809D01*
X108841431Y-88452354D01*
X108916661Y-88727894D01*
X108968617Y-89012812D01*
X108974662Y-89070752D01*
X108979834Y-89157298D01*
X108982981Y-89257925D01*
X108984105Y-89366009D01*
X108983208Y-89474923D01*
X108980292Y-89578046D01*
X108975359Y-89668751D01*
X108968410Y-89740416D01*
X108965865Y-89759155D01*
X108914588Y-90037092D01*
X108839289Y-90308532D01*
X108740975Y-90571089D01*
X108620652Y-90822378D01*
X108479327Y-91060012D01*
X108318007Y-91281607D01*
X108281460Y-91325859D01*
X108147650Y-91471982D01*
X107996573Y-91616431D01*
X107834786Y-91753545D01*
X107668844Y-91877667D01*
X107505303Y-91983135D01*
X107449501Y-92015068D01*
X107236315Y-92122465D01*
X107010575Y-92215284D01*
X106778614Y-92291376D01*
X106546763Y-92348594D01*
X106321354Y-92384789D01*
X106314289Y-92385526D01*
X106265821Y-92388981D01*
X106197842Y-92392126D01*
X106116109Y-92394766D01*
X106026376Y-92396709D01*
X105934401Y-92397762D01*
X105646667Y-92399479D01*
X105646667Y-91466776D01*
X105934401Y-91466799D01*
X106005141Y-91466664D01*
X106090832Y-91465769D01*
X106159119Y-91463702D01*
X106215391Y-91460078D01*
X106265042Y-91454513D01*
X106313462Y-91446622D01*
X106366044Y-91436021D01*
X106371745Y-91434794D01*
X106605262Y-91371206D01*
X106826309Y-91284624D01*
X107033891Y-91175719D01*
X107227010Y-91045163D01*
X107404667Y-90893630D01*
X107565866Y-90721791D01*
X107709608Y-90530319D01*
X107719064Y-90515967D01*
X107775440Y-90421569D01*
X107831718Y-90313892D01*
X107884815Y-90199878D01*
X107931648Y-90086469D01*
X107969136Y-89980611D01*
X107994196Y-89889244D01*
X108003561Y-89846250D01*
X106241979Y-89846250D01*
X106241979Y-88906979D01*
X108003561Y-88906979D01*
X107994196Y-88863984D01*
X107988102Y-88838388D01*
X107960625Y-88747488D01*
X107922318Y-88643702D01*
X107876164Y-88533866D01*
X107825145Y-88424820D01*
X107772244Y-88323402D01*
X107720446Y-88236449D01*
X107695807Y-88199379D01*
X107555547Y-88016430D01*
X107395951Y-87850418D01*
X107218780Y-87702544D01*
X107025799Y-87574009D01*
X106818768Y-87466012D01*
X106599451Y-87379754D01*
X106369611Y-87316436D01*
X106335711Y-87309308D01*
X106289012Y-87301008D01*
X106241524Y-87294996D01*
X106188112Y-87290914D01*
X106123645Y-87288408D01*
X106042990Y-87287120D01*
X105941015Y-87286695D01*
X105646665Y-87286406D01*
X105646667Y-86353750D01*
X105927787Y-86354008D01*
G37*
X105927787Y-86354008D02*
X106039313Y-86354968D01*
X106172615Y-86359356D01*
X106292480Y-86367981D01*
X106406300Y-86381592D01*
X106521470Y-86400938D01*
X106645381Y-86426769D01*
X106745691Y-86451267D01*
X107002400Y-86532322D01*
X107252491Y-86637517D01*
X107493515Y-86765325D01*
X107723027Y-86914214D01*
X107938578Y-87082656D01*
X108137720Y-87269121D01*
X108318007Y-87472079D01*
X108321427Y-87476325D01*
X108482924Y-87698177D01*
X108623879Y-87935877D01*
X108743609Y-88187809D01*
X108841431Y-88452354D01*
X108916661Y-88727894D01*
X108968617Y-89012812D01*
X108974662Y-89070752D01*
X108979834Y-89157298D01*
X108982981Y-89257925D01*
X108984105Y-89366009D01*
X108983208Y-89474923D01*
X108980292Y-89578046D01*
X108975359Y-89668751D01*
X108968410Y-89740416D01*
X108965865Y-89759155D01*
X108914588Y-90037092D01*
X108839289Y-90308532D01*
X108740975Y-90571089D01*
X108620652Y-90822378D01*
X108479327Y-91060012D01*
X108318007Y-91281607D01*
X108281460Y-91325859D01*
X108147650Y-91471982D01*
X107996573Y-91616431D01*
X107834786Y-91753545D01*
X107668844Y-91877667D01*
X107505303Y-91983135D01*
X107449501Y-92015068D01*
X107236315Y-92122465D01*
X107010575Y-92215284D01*
X106778614Y-92291376D01*
X106546763Y-92348594D01*
X106321354Y-92384789D01*
X106314289Y-92385526D01*
X106265821Y-92388981D01*
X106197842Y-92392126D01*
X106116109Y-92394766D01*
X106026376Y-92396709D01*
X105934401Y-92397762D01*
X105646667Y-92399479D01*
X105646667Y-91466776D01*
X105934401Y-91466799D01*
X106005141Y-91466664D01*
X106090832Y-91465769D01*
X106159119Y-91463702D01*
X106215391Y-91460078D01*
X106265042Y-91454513D01*
X106313462Y-91446622D01*
X106366044Y-91436021D01*
X106371745Y-91434794D01*
X106605262Y-91371206D01*
X106826309Y-91284624D01*
X107033891Y-91175719D01*
X107227010Y-91045163D01*
X107404667Y-90893630D01*
X107565866Y-90721791D01*
X107709608Y-90530319D01*
X107719064Y-90515967D01*
X107775440Y-90421569D01*
X107831718Y-90313892D01*
X107884815Y-90199878D01*
X107931648Y-90086469D01*
X107969136Y-89980611D01*
X107994196Y-89889244D01*
X108003561Y-89846250D01*
X106241979Y-89846250D01*
X106241979Y-88906979D01*
X108003561Y-88906979D01*
X107994196Y-88863984D01*
X107988102Y-88838388D01*
X107960625Y-88747488D01*
X107922318Y-88643702D01*
X107876164Y-88533866D01*
X107825145Y-88424820D01*
X107772244Y-88323402D01*
X107720446Y-88236449D01*
X107695807Y-88199379D01*
X107555547Y-88016430D01*
X107395951Y-87850418D01*
X107218780Y-87702544D01*
X107025799Y-87574009D01*
X106818768Y-87466012D01*
X106599451Y-87379754D01*
X106369611Y-87316436D01*
X106335711Y-87309308D01*
X106289012Y-87301008D01*
X106241524Y-87294996D01*
X106188112Y-87290914D01*
X106123645Y-87288408D01*
X106042990Y-87287120D01*
X105941015Y-87286695D01*
X105646665Y-87286406D01*
X105646667Y-86353750D01*
X105927787Y-86354008D01*
X110940813Y-86354315D02*
X110876330Y-86355975D01*
X110876330Y-86355975D02*
X110829697Y-86358945D01*
X110829697Y-86358945D02*
X110809349Y-86362088D01*
X110809349Y-86362088D02*
X110779583Y-86370065D01*
X110779583Y-86370065D02*
X110779583Y-87290530D01*
X110779583Y-87290530D02*
X110989119Y-87283259D01*
X110989119Y-87283259D02*
X111198953Y-87283523D01*
X111198953Y-87283523D02*
X111393141Y-87300382D01*
X111393141Y-87300382D02*
X111577580Y-87335075D01*
X111577580Y-87335075D02*
X111758168Y-87388839D01*
X111758168Y-87388839D02*
X111940803Y-87462911D01*
X111940803Y-87462911D02*
X112016511Y-87498879D01*
X112016511Y-87498879D02*
X112197062Y-87597977D01*
X112197062Y-87597977D02*
X112359702Y-87709326D01*
X112359702Y-87709326D02*
X112512099Y-87838408D01*
X112512099Y-87838408D02*
X112571378Y-87895705D01*
X112571378Y-87895705D02*
X112728015Y-88070861D01*
X112728015Y-88070861D02*
X112863527Y-88261520D01*
X112863527Y-88261520D02*
X112977234Y-88466394D01*
X112977234Y-88466394D02*
X113068456Y-88684193D01*
X113068456Y-88684193D02*
X113136515Y-88913629D01*
X113136515Y-88913629D02*
X113156674Y-89006197D01*
X113156674Y-89006197D02*
X113168823Y-89090244D01*
X113168823Y-89090244D02*
X113176934Y-89193234D01*
X113176934Y-89193234D02*
X113181015Y-89307965D01*
X113181015Y-89307965D02*
X113181074Y-89427234D01*
X113181074Y-89427234D02*
X113177116Y-89543837D01*
X113177116Y-89543837D02*
X113169149Y-89650571D01*
X113169149Y-89650571D02*
X113157181Y-89740233D01*
X113157181Y-89740233D02*
X113155943Y-89747031D01*
X113155943Y-89747031D02*
X113100089Y-89975759D01*
X113100089Y-89975759D02*
X113020701Y-90193965D01*
X113020701Y-90193965D02*
X112919069Y-90400177D01*
X112919069Y-90400177D02*
X112796478Y-90592928D01*
X112796478Y-90592928D02*
X112654219Y-90770748D01*
X112654219Y-90770748D02*
X112493579Y-90932168D01*
X112493579Y-90932168D02*
X112315845Y-91075719D01*
X112315845Y-91075719D02*
X112122307Y-91199931D01*
X112122307Y-91199931D02*
X111914252Y-91303336D01*
X111914252Y-91303336D02*
X111730763Y-91372535D01*
X111730763Y-91372535D02*
X111627623Y-91404118D01*
X111627623Y-91404118D02*
X111532893Y-91428129D01*
X111532893Y-91428129D02*
X111440130Y-91445463D01*
X111440130Y-91445463D02*
X111342894Y-91457016D01*
X111342894Y-91457016D02*
X111234742Y-91463680D01*
X111234742Y-91463680D02*
X111109233Y-91466352D01*
X111109233Y-91466352D02*
X111054089Y-91466504D01*
X111054089Y-91466504D02*
X110779583Y-91466186D01*
X110779583Y-91466186D02*
X110779583Y-92383164D01*
X110779583Y-92383164D02*
X110809349Y-92391141D01*
X110809349Y-92391141D02*
X110834749Y-92394138D01*
X110834749Y-92394138D02*
X110881744Y-92396203D01*
X110881744Y-92396203D02*
X110945490Y-92397382D01*
X110945490Y-92397382D02*
X111021142Y-92397723D01*
X111021142Y-92397723D02*
X111103854Y-92397274D01*
X111103854Y-92397274D02*
X111188783Y-92396083D01*
X111188783Y-92396083D02*
X111271083Y-92394197D01*
X111271083Y-92394197D02*
X111345909Y-92391663D01*
X111345909Y-92391663D02*
X111408417Y-92388531D01*
X111408417Y-92388531D02*
X111453762Y-92384847D01*
X111453762Y-92384847D02*
X111454271Y-92384789D01*
X111454271Y-92384789D02*
X111567271Y-92368341D01*
X111567271Y-92368341D02*
X111694872Y-92343706D01*
X111694872Y-92343706D02*
X111827338Y-92313083D01*
X111827338Y-92313083D02*
X111954934Y-92278667D01*
X111954934Y-92278667D02*
X112036016Y-92253536D01*
X112036016Y-92253536D02*
X112300553Y-92152498D01*
X112300553Y-92152498D02*
X112551277Y-92029513D01*
X112551277Y-92029513D02*
X112787195Y-91885777D01*
X112787195Y-91885777D02*
X113007320Y-91722487D01*
X113007320Y-91722487D02*
X113210660Y-91540838D01*
X113210660Y-91540838D02*
X113396227Y-91342026D01*
X113396227Y-91342026D02*
X113563030Y-91127247D01*
X113563030Y-91127247D02*
X113710079Y-90897698D01*
X113710079Y-90897698D02*
X113836385Y-90654573D01*
X113836385Y-90654573D02*
X113940958Y-90399070D01*
X113940958Y-90399070D02*
X114022808Y-90132383D01*
X114022808Y-90132383D02*
X114080945Y-89855709D01*
X114080945Y-89855709D02*
X114094162Y-89766875D01*
X114094162Y-89766875D02*
X114102618Y-89682107D01*
X114102618Y-89682107D02*
X114108437Y-89578118D01*
X114108437Y-89578118D02*
X114111618Y-89462009D01*
X114111618Y-89462009D02*
X114112161Y-89340887D01*
X114112161Y-89340887D02*
X114110066Y-89221854D01*
X114110066Y-89221854D02*
X114105334Y-89112014D01*
X114105334Y-89112014D02*
X114097963Y-89018472D01*
X114097963Y-89018472D02*
X114094162Y-88986354D01*
X114094162Y-88986354D02*
X114043241Y-88703706D01*
X114043241Y-88703706D02*
X113967795Y-88430614D01*
X113967795Y-88430614D02*
X113868081Y-88167714D01*
X113868081Y-88167714D02*
X113744354Y-87915637D01*
X113744354Y-87915637D02*
X113596872Y-87675017D01*
X113596872Y-87675017D02*
X113518048Y-87564218D01*
X113518048Y-87564218D02*
X113339770Y-87346723D01*
X113339770Y-87346723D02*
X113143767Y-87148344D01*
X113143767Y-87148344D02*
X112931402Y-86969882D01*
X112931402Y-86969882D02*
X112704041Y-86812133D01*
X112704041Y-86812133D02*
X112463047Y-86675897D01*
X112463047Y-86675897D02*
X112209787Y-86561971D01*
X112209787Y-86561971D02*
X111945623Y-86471153D01*
X111945623Y-86471153D02*
X111671921Y-86404241D01*
X111671921Y-86404241D02*
X111481120Y-86372813D01*
X111481120Y-86372813D02*
X111428646Y-86367490D01*
X111428646Y-86367490D02*
X111359782Y-86362930D01*
X111359782Y-86362930D02*
X111279419Y-86359212D01*
X111279419Y-86359212D02*
X111192450Y-86356413D01*
X111192450Y-86356413D02*
X111103764Y-86354612D01*
X111103764Y-86354612D02*
X111018255Y-86353887D01*
X111018255Y-86353887D02*
X110940813Y-86354315D01*
X110940813Y-86354315D02*
X110940813Y-86354315D01*
G36*
X111103764Y-86354612D02*
G01*
X111192450Y-86356413D01*
X111279419Y-86359212D01*
X111359782Y-86362930D01*
X111428646Y-86367490D01*
X111481120Y-86372813D01*
X111671921Y-86404241D01*
X111945623Y-86471153D01*
X112209787Y-86561971D01*
X112463047Y-86675897D01*
X112704041Y-86812133D01*
X112931402Y-86969882D01*
X113143767Y-87148344D01*
X113339770Y-87346723D01*
X113518048Y-87564218D01*
X113596872Y-87675017D01*
X113744354Y-87915637D01*
X113868081Y-88167714D01*
X113967795Y-88430614D01*
X114043241Y-88703706D01*
X114094162Y-88986354D01*
X114097963Y-89018472D01*
X114105334Y-89112014D01*
X114110066Y-89221854D01*
X114112161Y-89340887D01*
X114111618Y-89462009D01*
X114108437Y-89578118D01*
X114102618Y-89682107D01*
X114094162Y-89766875D01*
X114080945Y-89855709D01*
X114022808Y-90132383D01*
X113940958Y-90399070D01*
X113836385Y-90654573D01*
X113710079Y-90897698D01*
X113563030Y-91127247D01*
X113396227Y-91342026D01*
X113210660Y-91540838D01*
X113007320Y-91722487D01*
X112787195Y-91885777D01*
X112551277Y-92029513D01*
X112300553Y-92152498D01*
X112036016Y-92253536D01*
X111954934Y-92278667D01*
X111827338Y-92313083D01*
X111694872Y-92343706D01*
X111567271Y-92368341D01*
X111454271Y-92384789D01*
X111453762Y-92384847D01*
X111408417Y-92388531D01*
X111345909Y-92391663D01*
X111271083Y-92394197D01*
X111188783Y-92396083D01*
X111103854Y-92397274D01*
X111021142Y-92397723D01*
X110945490Y-92397382D01*
X110881744Y-92396203D01*
X110834749Y-92394138D01*
X110809349Y-92391141D01*
X110779583Y-92383164D01*
X110779583Y-91466186D01*
X111054089Y-91466504D01*
X111109233Y-91466352D01*
X111234742Y-91463680D01*
X111342894Y-91457016D01*
X111440130Y-91445463D01*
X111532893Y-91428129D01*
X111627623Y-91404118D01*
X111730763Y-91372535D01*
X111914252Y-91303336D01*
X112122307Y-91199931D01*
X112315845Y-91075719D01*
X112493579Y-90932168D01*
X112654219Y-90770748D01*
X112796478Y-90592928D01*
X112919069Y-90400177D01*
X113020701Y-90193965D01*
X113100089Y-89975759D01*
X113155943Y-89747031D01*
X113157181Y-89740233D01*
X113169149Y-89650571D01*
X113177116Y-89543837D01*
X113181074Y-89427234D01*
X113181015Y-89307965D01*
X113176934Y-89193234D01*
X113168823Y-89090244D01*
X113156674Y-89006197D01*
X113136515Y-88913629D01*
X113068456Y-88684193D01*
X112977234Y-88466394D01*
X112863527Y-88261520D01*
X112728015Y-88070861D01*
X112571378Y-87895705D01*
X112512099Y-87838408D01*
X112359702Y-87709326D01*
X112197062Y-87597977D01*
X112016511Y-87498879D01*
X111940803Y-87462911D01*
X111758168Y-87388839D01*
X111577580Y-87335075D01*
X111393141Y-87300382D01*
X111198953Y-87283523D01*
X110989119Y-87283259D01*
X110779583Y-87290530D01*
X110779583Y-86370065D01*
X110809349Y-86362088D01*
X110829697Y-86358945D01*
X110876330Y-86355975D01*
X110940813Y-86354315D01*
X111018255Y-86353887D01*
X111103764Y-86354612D01*
G37*
X111103764Y-86354612D02*
X111192450Y-86356413D01*
X111279419Y-86359212D01*
X111359782Y-86362930D01*
X111428646Y-86367490D01*
X111481120Y-86372813D01*
X111671921Y-86404241D01*
X111945623Y-86471153D01*
X112209787Y-86561971D01*
X112463047Y-86675897D01*
X112704041Y-86812133D01*
X112931402Y-86969882D01*
X113143767Y-87148344D01*
X113339770Y-87346723D01*
X113518048Y-87564218D01*
X113596872Y-87675017D01*
X113744354Y-87915637D01*
X113868081Y-88167714D01*
X113967795Y-88430614D01*
X114043241Y-88703706D01*
X114094162Y-88986354D01*
X114097963Y-89018472D01*
X114105334Y-89112014D01*
X114110066Y-89221854D01*
X114112161Y-89340887D01*
X114111618Y-89462009D01*
X114108437Y-89578118D01*
X114102618Y-89682107D01*
X114094162Y-89766875D01*
X114080945Y-89855709D01*
X114022808Y-90132383D01*
X113940958Y-90399070D01*
X113836385Y-90654573D01*
X113710079Y-90897698D01*
X113563030Y-91127247D01*
X113396227Y-91342026D01*
X113210660Y-91540838D01*
X113007320Y-91722487D01*
X112787195Y-91885777D01*
X112551277Y-92029513D01*
X112300553Y-92152498D01*
X112036016Y-92253536D01*
X111954934Y-92278667D01*
X111827338Y-92313083D01*
X111694872Y-92343706D01*
X111567271Y-92368341D01*
X111454271Y-92384789D01*
X111453762Y-92384847D01*
X111408417Y-92388531D01*
X111345909Y-92391663D01*
X111271083Y-92394197D01*
X111188783Y-92396083D01*
X111103854Y-92397274D01*
X111021142Y-92397723D01*
X110945490Y-92397382D01*
X110881744Y-92396203D01*
X110834749Y-92394138D01*
X110809349Y-92391141D01*
X110779583Y-92383164D01*
X110779583Y-91466186D01*
X111054089Y-91466504D01*
X111109233Y-91466352D01*
X111234742Y-91463680D01*
X111342894Y-91457016D01*
X111440130Y-91445463D01*
X111532893Y-91428129D01*
X111627623Y-91404118D01*
X111730763Y-91372535D01*
X111914252Y-91303336D01*
X112122307Y-91199931D01*
X112315845Y-91075719D01*
X112493579Y-90932168D01*
X112654219Y-90770748D01*
X112796478Y-90592928D01*
X112919069Y-90400177D01*
X113020701Y-90193965D01*
X113100089Y-89975759D01*
X113155943Y-89747031D01*
X113157181Y-89740233D01*
X113169149Y-89650571D01*
X113177116Y-89543837D01*
X113181074Y-89427234D01*
X113181015Y-89307965D01*
X113176934Y-89193234D01*
X113168823Y-89090244D01*
X113156674Y-89006197D01*
X113136515Y-88913629D01*
X113068456Y-88684193D01*
X112977234Y-88466394D01*
X112863527Y-88261520D01*
X112728015Y-88070861D01*
X112571378Y-87895705D01*
X112512099Y-87838408D01*
X112359702Y-87709326D01*
X112197062Y-87597977D01*
X112016511Y-87498879D01*
X111940803Y-87462911D01*
X111758168Y-87388839D01*
X111577580Y-87335075D01*
X111393141Y-87300382D01*
X111198953Y-87283523D01*
X110989119Y-87283259D01*
X110779583Y-87290530D01*
X110779583Y-86370065D01*
X110809349Y-86362088D01*
X110829697Y-86358945D01*
X110876330Y-86355975D01*
X110940813Y-86354315D01*
X111018255Y-86353887D01*
X111103764Y-86354612D01*
D12*
X93430000Y-61700000D02*
X94760000Y-61700000D01*
X94760000Y-61700000D02*
X94760000Y-60370000D01*
X92160000Y-61700000D02*
X84480000Y-61700000D01*
X84480000Y-61700000D02*
X84480000Y-59040000D01*
X92160000Y-61700000D02*
X92160000Y-59040000D01*
X92160000Y-59040000D02*
X84480000Y-59040000D01*
M02*
