G04 #@! TF.GenerationSoftware,KiCad,Pcbnew,(6.0.2)*
G04 #@! TF.CreationDate,2022-03-16T21:20:06+00:00*
G04 #@! TF.ProjectId,MrReflow,4d725265-666c-46f7-972e-6b696361645f,rev?*
G04 #@! TF.SameCoordinates,Original*
G04 #@! TF.FileFunction,Soldermask,Bot*
G04 #@! TF.FilePolarity,Negative*
%FSLAX46Y46*%
G04 Gerber Fmt 4.6, Leading zero omitted, Abs format (unit mm)*
G04 Created by KiCad (PCBNEW (6.0.2)) date 2022-03-16 21:20:06*
%MOMM*%
%LPD*%
G01*
G04 APERTURE LIST*
G04 Aperture macros list*
%AMRoundRect*
0 Rectangle with rounded corners*
0 $1 Rounding radius*
0 $2 $3 $4 $5 $6 $7 $8 $9 X,Y pos of 4 corners*
0 Add a 4 corners polygon primitive as box body*
4,1,4,$2,$3,$4,$5,$6,$7,$8,$9,$2,$3,0*
0 Add four circle primitives for the rounded corners*
1,1,$1+$1,$2,$3*
1,1,$1+$1,$4,$5*
1,1,$1+$1,$6,$7*
1,1,$1+$1,$8,$9*
0 Add four rect primitives between the rounded corners*
20,1,$1+$1,$2,$3,$4,$5,0*
20,1,$1+$1,$4,$5,$6,$7,0*
20,1,$1+$1,$6,$7,$8,$9,0*
20,1,$1+$1,$8,$9,$2,$3,0*%
G04 Aperture macros list end*
%ADD10O,3.702000X2.182000*%
%ADD11RoundRect,0.300999X1.550001X-0.790001X1.550001X0.790001X-1.550001X0.790001X-1.550001X-0.790001X0*%
%ADD12O,1.802000X1.802000*%
%ADD13RoundRect,0.051000X0.850000X-0.850000X0.850000X0.850000X-0.850000X0.850000X-0.850000X-0.850000X0*%
%ADD14C,5.102000*%
%ADD15RoundRect,0.051000X2.500000X-2.500000X2.500000X2.500000X-2.500000X2.500000X-2.500000X-2.500000X0*%
%ADD16RoundRect,0.051000X-0.850000X-0.850000X0.850000X-0.850000X0.850000X0.850000X-0.850000X0.850000X0*%
G04 APERTURE END LIST*
D10*
X105102500Y-99830000D03*
D11*
X105102500Y-104910000D03*
D12*
X85810000Y-60370000D03*
X88350000Y-60370000D03*
X90890000Y-60370000D03*
D13*
X93430000Y-60370000D03*
D14*
X82880000Y-69027500D03*
X90880000Y-69027500D03*
X90880000Y-107527500D03*
D15*
X80130000Y-107527500D03*
D12*
X104380000Y-29875000D03*
X104380000Y-27335000D03*
D16*
X104380000Y-24795000D03*
D12*
X96465000Y-45620000D03*
X93925000Y-45620000D03*
X91385000Y-45620000D03*
X88845000Y-45620000D03*
D13*
X86305000Y-45620000D03*
G36*
X106644402Y-105999999D02*
G01*
X106644402Y-106001999D01*
X106642999Y-106002972D01*
X106642993Y-106002973D01*
X106642664Y-106003000D01*
X103562336Y-106003000D01*
X103560604Y-106002000D01*
X103560604Y-106000000D01*
X103562336Y-105999000D01*
X106642670Y-105998999D01*
X106644402Y-105999999D01*
G37*
G36*
X106644396Y-103818000D02*
G01*
X106644396Y-103820000D01*
X106642664Y-103821000D01*
X103562330Y-103821001D01*
X103560598Y-103820001D01*
X103560598Y-103818001D01*
X103562001Y-103817028D01*
X103562007Y-103817027D01*
X103562336Y-103817000D01*
X106642664Y-103817000D01*
X106644396Y-103818000D01*
G37*
M02*
